<svg xmlns="http://www.w3.org/2000/svg" viewBox="0.010002505034208298 0 150.1199951171875 150.1199951171875">
    <g>
        <g>
            <path
                d="M41.83 75.06A33.24 33.24 0 0 0 75 108.31a1.91 1.91 0 0 0 .59-.1 1.88 1.88 0 0 0 1.41-1.78V96a1.89 1.89 0 0 0-1.89-1.88A19 19 0 1 1 94.1 75a1.88 1.88 0 0 0 1.9 2h10.44a1.89 1.89 0 0 0 1.88-1.89 33.24 33.24 0 1 0-66.48 0z"
                fill="#00a5e3"></path>
            <path
                d="M115 75.06a39.93 39.93 0 1 1-68.17-28.23 1.88 1.88 0 0 0 0-2.66l-7.39-7.39a1.89 1.89 0 0 0-2.66 0 54.15 54.15 0 1 0 76.59 0 1.89 1.89 0 0 0-2.67 0l-7.39 7.39a1.88 1.88 0 0 0 0 2.66A39.67 39.67 0 0 1 115 75.06z"
                fill="#00a5e3"></path>
            <path
                d="M148.25 73.18h-10.46a1.89 1.89 0 0 0-1.88 1.89 60.84 60.84 0 1 1-60.85-60.85 1.88 1.88 0 0 0 1.88-1.88V1.88A1.88 1.88 0 0 0 75.06 0a75.06 75.06 0 1 0 75.07 75.06 1.89 1.89 0 0 0-1.88-1.88z"
                fill="#00a5e3"></path>
            <path
                d="M75.07 41.82a33.28 33.28 0 0 0-33 29.2 109.63 109.63 0 0 0 14 3.38 19 19 0 0 1 38 0 109.58 109.58 0 0 0 14-3.37 33.28 33.28 0 0 0-33-29.21zM35.62 68.78a39.62 39.62 0 0 1 11.2-22 1.88 1.88 0 0 0 0-2.66l-7.39-7.39a1.89 1.89 0 0 0-2.66 0 53.84 53.84 0 0 0-14.4 25.91 110.36 110.36 0 0 0 13.25 6.14zM113.36 36.77a1.89 1.89 0 0 0-2.67 0l-7.39 7.39a1.88 1.88 0 0 0 0 2.66 39.62 39.62 0 0 1 11.2 22 109.92 109.92 0 0 0 13.29-6.11 53.79 53.79 0 0 0-14.43-25.94z"
                fill="#fff" opacity=".2"></path>
            <path
                d="M75.06 0A75.17 75.17 0 0 0 4.21 50.32a110.75 110.75 0 0 0 12.13 8.83 61 61 0 0 1 58.72-44.93 1.88 1.88 0 0 0 1.88-1.88V1.88A1.88 1.88 0 0 0 75.06 0z"
                fill="#fff" opacity=".2"></path>
        </g>
    </g>
</svg>