<svg xmlns="http://www.w3.org/2000/svg" enable-background="new 0 0 3000 2500" viewBox="0 0 3000 2500"><rect width="2918.6" height="2432.2" x="40.7" y="33.9" fill="none"/><g opacity=".13"><ellipse cx="1795.4" cy="2080.9" fill="#4c0000" opacity="0" rx="247.7" ry="108.8" class="color4c0000 svgShape"/><ellipse cx="1795.4" cy="2080.9" fill="#4a0101" opacity=".038" rx="241.7" ry="106.2" class="color4a0101 svgShape"/><ellipse cx="1795.4" cy="2080.9" fill="#480202" opacity=".077" rx="235.7" ry="103.6" class="color480202 svgShape"/><ellipse cx="1795.4" cy="2080.9" fill="#460303" opacity=".115" rx="229.7" ry="100.9" class="color460303 svgShape"/><ellipse cx="1795.4" cy="2080.9" fill="#440404" opacity=".154" rx="223.7" ry="98.3" class="color440404 svgShape"/><ellipse cx="1795.4" cy="2080.9" fill="#420505" opacity=".192" rx="217.8" ry="95.7" class="color420505 svgShape"/><ellipse cx="1795.4" cy="2080.9" fill="#400606" opacity=".231" rx="211.8" ry="93" class="color400606 svgShape"/><ellipse cx="1795.4" cy="2080.9" fill="#3e0606" opacity=".269" rx="205.8" ry="90.4" class="color3e0606 svgShape"/><ellipse cx="1795.4" cy="2080.9" fill="#3c0707" opacity=".308" rx="199.8" ry="87.7" class="color3c0707 svgShape"/><ellipse cx="1795.4" cy="2080.9" fill="#3a0808" opacity=".346" rx="193.8" ry="85.1" class="color3a0808 svgShape"/><ellipse cx="1795.4" cy="2080.9" fill="#380909" opacity=".385" rx="187.8" ry="82.5" class="color380909 svgShape"/><ellipse cx="1795.4" cy="2080.9" fill="#360a0a" opacity=".423" rx="181.8" ry="79.8" class="color360a0a svgShape"/><ellipse cx="1795.4" cy="2080.9" fill="#340b0b" opacity=".462" rx="175.8" ry="77.2" class="color340b0b svgShape"/><ellipse cx="1795.4" cy="2080.9" fill="#330c0c" opacity=".5" rx="169.8" ry="74.6" class="color330c0c svgShape"/><ellipse cx="1795.4" cy="2080.9" fill="#310d0d" opacity=".538" rx="163.8" ry="71.9" class="color310d0d svgShape"/><ellipse cx="1795.4" cy="2080.9" fill="#2f0e0e" opacity=".577" rx="157.8" ry="69.3" class="color2f0e0e svgShape"/><ellipse cx="1795.4" cy="2080.9" fill="#2d0f0f" opacity=".615" rx="151.8" ry="66.7" class="color2d0f0f svgShape"/><ellipse cx="1795.4" cy="2080.9" fill="#2b1010" opacity=".654" rx="145.8" ry="64" class="color2b1010 svgShape"/><ellipse cx="1795.4" cy="2080.9" fill="#291111" opacity=".692" rx="139.8" ry="61.4" class="color291111 svgShape"/><ellipse cx="1795.4" cy="2080.9" fill="#271212" opacity=".731" rx="133.8" ry="58.8" class="color271212 svgShape"/><ellipse cx="1795.4" cy="2080.9" fill="#251212" opacity=".769" rx="127.8" ry="56.1" class="color251212 svgShape"/><ellipse cx="1795.4" cy="2080.9" fill="#231313" opacity=".808" rx="121.8" ry="53.5" class="color231313 svgShape"/><ellipse cx="1795.4" cy="2080.9" fill="#211414" opacity=".846" rx="115.8" ry="50.9" class="color211414 svgShape"/><ellipse cx="1795.4" cy="2080.9" fill="#1f1515" opacity=".885" rx="109.8" ry="48.2" class="color1f1515 svgShape"/><ellipse cx="1795.4" cy="2080.9" fill="#1d1616" opacity=".923" rx="103.8" ry="45.6" class="color1d1616 svgShape"/><ellipse cx="1795.4" cy="2080.9" fill="#1b1717" opacity=".962" rx="97.8" ry="43" class="color1b1717 svgShape"/><ellipse cx="1795.4" cy="2080.9" fill="#191818" rx="91.8" ry="40.3" class="color191818 svgShape"/></g><g opacity=".13"><ellipse cx="1243.4" cy="1991.8" fill="#4c0000" opacity="0" rx="247.7" ry="108.8" class="color4c0000 svgShape"/><ellipse cx="1243.4" cy="1991.8" fill="#4a0101" opacity=".038" rx="241.7" ry="106.2" class="color4a0101 svgShape"/><ellipse cx="1243.4" cy="1991.8" fill="#480202" opacity=".077" rx="235.7" ry="103.6" class="color480202 svgShape"/><ellipse cx="1243.4" cy="1991.8" fill="#460303" opacity=".115" rx="229.7" ry="100.9" class="color460303 svgShape"/><ellipse cx="1243.4" cy="1991.8" fill="#440404" opacity=".154" rx="223.7" ry="98.3" class="color440404 svgShape"/><ellipse cx="1243.4" cy="1991.8" fill="#420505" opacity=".192" rx="217.8" ry="95.7" class="color420505 svgShape"/><ellipse cx="1243.4" cy="1991.8" fill="#400606" opacity=".231" rx="211.8" ry="93" class="color400606 svgShape"/><ellipse cx="1243.4" cy="1991.8" fill="#3e0606" opacity=".269" rx="205.8" ry="90.4" class="color3e0606 svgShape"/><ellipse cx="1243.4" cy="1991.8" fill="#3c0707" opacity=".308" rx="199.8" ry="87.7" class="color3c0707 svgShape"/><ellipse cx="1243.4" cy="1991.8" fill="#3a0808" opacity=".346" rx="193.8" ry="85.1" class="color3a0808 svgShape"/><ellipse cx="1243.4" cy="1991.8" fill="#380909" opacity=".385" rx="187.8" ry="82.5" class="color380909 svgShape"/><ellipse cx="1243.4" cy="1991.8" fill="#360a0a" opacity=".423" rx="181.8" ry="79.8" class="color360a0a svgShape"/><ellipse cx="1243.4" cy="1991.8" fill="#340b0b" opacity=".462" rx="175.8" ry="77.2" class="color340b0b svgShape"/><ellipse cx="1243.4" cy="1991.8" fill="#330c0c" opacity=".5" rx="169.8" ry="74.6" class="color330c0c svgShape"/><ellipse cx="1243.4" cy="1991.8" fill="#310d0d" opacity=".538" rx="163.8" ry="71.9" class="color310d0d svgShape"/><ellipse cx="1243.4" cy="1991.8" fill="#2f0e0e" opacity=".577" rx="157.8" ry="69.3" class="color2f0e0e svgShape"/><ellipse cx="1243.4" cy="1991.8" fill="#2d0f0f" opacity=".615" rx="151.8" ry="66.7" class="color2d0f0f svgShape"/><ellipse cx="1243.4" cy="1991.8" fill="#2b1010" opacity=".654" rx="145.8" ry="64" class="color2b1010 svgShape"/><ellipse cx="1243.4" cy="1991.8" fill="#291111" opacity=".692" rx="139.8" ry="61.4" class="color291111 svgShape"/><ellipse cx="1243.4" cy="1991.8" fill="#271212" opacity=".731" rx="133.8" ry="58.8" class="color271212 svgShape"/><ellipse cx="1243.4" cy="1991.8" fill="#251212" opacity=".769" rx="127.8" ry="56.1" class="color251212 svgShape"/><ellipse cx="1243.4" cy="1991.8" fill="#231313" opacity=".808" rx="121.8" ry="53.5" class="color231313 svgShape"/><ellipse cx="1243.4" cy="1991.8" fill="#211414" opacity=".846" rx="115.8" ry="50.9" class="color211414 svgShape"/><ellipse cx="1243.4" cy="1991.8" fill="#1f1515" opacity=".885" rx="109.8" ry="48.2" class="color1f1515 svgShape"/><ellipse cx="1243.4" cy="1991.8" fill="#1d1616" opacity=".923" rx="103.8" ry="45.6" class="color1d1616 svgShape"/><ellipse cx="1243.4" cy="1991.8" fill="#1b1717" opacity=".962" rx="97.8" ry="43" class="color1b1717 svgShape"/><ellipse cx="1243.4" cy="1991.8" fill="#191818" rx="91.8" ry="40.3" class="color191818 svgShape"/></g><g opacity=".26"><ellipse cx="2046.3" cy="1473.9" fill="#4c0000" opacity="0" rx="247.7" ry="108.8" class="color4c0000 svgShape"/><ellipse cx="2046.3" cy="1473.9" fill="#4a0101" opacity=".038" rx="241.7" ry="106.2" class="color4a0101 svgShape"/><ellipse cx="2046.3" cy="1473.9" fill="#480202" opacity=".077" rx="235.7" ry="103.6" class="color480202 svgShape"/><ellipse cx="2046.3" cy="1473.9" fill="#460303" opacity=".115" rx="229.7" ry="100.9" class="color460303 svgShape"/><ellipse cx="2046.3" cy="1473.9" fill="#440404" opacity=".154" rx="223.7" ry="98.3" class="color440404 svgShape"/><ellipse cx="2046.3" cy="1473.9" fill="#420505" opacity=".192" rx="217.8" ry="95.7" class="color420505 svgShape"/><ellipse cx="2046.3" cy="1473.9" fill="#400606" opacity=".231" rx="211.8" ry="93" class="color400606 svgShape"/><ellipse cx="2046.3" cy="1473.9" fill="#3e0606" opacity=".269" rx="205.8" ry="90.4" class="color3e0606 svgShape"/><ellipse cx="2046.3" cy="1473.9" fill="#3c0707" opacity=".308" rx="199.8" ry="87.7" class="color3c0707 svgShape"/><ellipse cx="2046.3" cy="1473.9" fill="#3a0808" opacity=".346" rx="193.8" ry="85.1" class="color3a0808 svgShape"/><ellipse cx="2046.3" cy="1473.9" fill="#380909" opacity=".385" rx="187.8" ry="82.5" class="color380909 svgShape"/><ellipse cx="2046.3" cy="1473.9" fill="#360a0a" opacity=".423" rx="181.8" ry="79.8" class="color360a0a svgShape"/><ellipse cx="2046.3" cy="1473.9" fill="#340b0b" opacity=".462" rx="175.8" ry="77.2" class="color340b0b svgShape"/><ellipse cx="2046.3" cy="1473.9" fill="#330c0c" opacity=".5" rx="169.8" ry="74.6" class="color330c0c svgShape"/><ellipse cx="2046.3" cy="1473.9" fill="#310d0d" opacity=".538" rx="163.8" ry="71.9" class="color310d0d svgShape"/><ellipse cx="2046.3" cy="1473.9" fill="#2f0e0e" opacity=".577" rx="157.8" ry="69.3" class="color2f0e0e svgShape"/><ellipse cx="2046.3" cy="1473.9" fill="#2d0f0f" opacity=".615" rx="151.8" ry="66.7" class="color2d0f0f svgShape"/><ellipse cx="2046.3" cy="1473.9" fill="#2b1010" opacity=".654" rx="145.8" ry="64" class="color2b1010 svgShape"/><ellipse cx="2046.3" cy="1473.9" fill="#291111" opacity=".692" rx="139.8" ry="61.4" class="color291111 svgShape"/><ellipse cx="2046.3" cy="1473.9" fill="#271212" opacity=".731" rx="133.8" ry="58.8" class="color271212 svgShape"/><ellipse cx="2046.3" cy="1473.9" fill="#251212" opacity=".769" rx="127.8" ry="56.1" class="color251212 svgShape"/><ellipse cx="2046.3" cy="1473.9" fill="#231313" opacity=".808" rx="121.8" ry="53.5" class="color231313 svgShape"/><ellipse cx="2046.3" cy="1473.9" fill="#211414" opacity=".846" rx="115.8" ry="50.9" class="color211414 svgShape"/><ellipse cx="2046.3" cy="1473.9" fill="#1f1515" opacity=".885" rx="109.8" ry="48.2" class="color1f1515 svgShape"/><ellipse cx="2046.3" cy="1473.9" fill="#1d1616" opacity=".923" rx="103.8" ry="45.6" class="color1d1616 svgShape"/><ellipse cx="2046.3" cy="1473.9" fill="#1b1717" opacity=".962" rx="97.8" ry="43" class="color1b1717 svgShape"/><ellipse cx="2046.3" cy="1473.9" fill="#191818" rx="91.8" ry="40.3" class="color191818 svgShape"/></g><g opacity=".13"><ellipse cx="794.9" cy="1804.6" fill="#4c0000" opacity="0" rx="247.7" ry="108.8" class="color4c0000 svgShape"/><ellipse cx="794.9" cy="1804.6" fill="#4a0101" opacity=".038" rx="241.7" ry="106.2" class="color4a0101 svgShape"/><ellipse cx="794.9" cy="1804.6" fill="#480202" opacity=".077" rx="235.7" ry="103.6" class="color480202 svgShape"/><ellipse cx="794.9" cy="1804.6" fill="#460303" opacity=".115" rx="229.7" ry="100.9" class="color460303 svgShape"/><ellipse cx="794.9" cy="1804.6" fill="#440404" opacity=".154" rx="223.7" ry="98.3" class="color440404 svgShape"/><ellipse cx="794.9" cy="1804.6" fill="#420505" opacity=".192" rx="217.8" ry="95.7" class="color420505 svgShape"/><ellipse cx="794.9" cy="1804.6" fill="#400606" opacity=".231" rx="211.8" ry="93" class="color400606 svgShape"/><ellipse cx="794.9" cy="1804.6" fill="#3e0606" opacity=".269" rx="205.8" ry="90.4" class="color3e0606 svgShape"/><ellipse cx="794.9" cy="1804.6" fill="#3c0707" opacity=".308" rx="199.8" ry="87.7" class="color3c0707 svgShape"/><ellipse cx="794.9" cy="1804.6" fill="#3a0808" opacity=".346" rx="193.8" ry="85.1" class="color3a0808 svgShape"/><ellipse cx="794.9" cy="1804.6" fill="#380909" opacity=".385" rx="187.8" ry="82.5" class="color380909 svgShape"/><ellipse cx="794.9" cy="1804.6" fill="#360a0a" opacity=".423" rx="181.8" ry="79.8" class="color360a0a svgShape"/><ellipse cx="794.9" cy="1804.6" fill="#340b0b" opacity=".462" rx="175.8" ry="77.2" class="color340b0b svgShape"/><ellipse cx="794.9" cy="1804.6" fill="#330c0c" opacity=".5" rx="169.8" ry="74.6" class="color330c0c svgShape"/><ellipse cx="794.9" cy="1804.6" fill="#310d0d" opacity=".538" rx="163.8" ry="71.9" class="color310d0d svgShape"/><ellipse cx="794.9" cy="1804.6" fill="#2f0e0e" opacity=".577" rx="157.8" ry="69.3" class="color2f0e0e svgShape"/><ellipse cx="794.9" cy="1804.6" fill="#2d0f0f" opacity=".615" rx="151.8" ry="66.7" class="color2d0f0f svgShape"/><ellipse cx="794.9" cy="1804.6" fill="#2b1010" opacity=".654" rx="145.8" ry="64" class="color2b1010 svgShape"/><ellipse cx="794.9" cy="1804.6" fill="#291111" opacity=".692" rx="139.8" ry="61.4" class="color291111 svgShape"/><ellipse cx="794.9" cy="1804.6" fill="#271212" opacity=".731" rx="133.8" ry="58.8" class="color271212 svgShape"/><ellipse cx="794.9" cy="1804.6" fill="#251212" opacity=".769" rx="127.8" ry="56.1" class="color251212 svgShape"/><ellipse cx="794.9" cy="1804.6" fill="#231313" opacity=".808" rx="121.8" ry="53.5" class="color231313 svgShape"/><ellipse cx="794.9" cy="1804.6" fill="#211414" opacity=".846" rx="115.8" ry="50.9" class="color211414 svgShape"/><ellipse cx="794.9" cy="1804.6" fill="#1f1515" opacity=".885" rx="109.8" ry="48.2" class="color1f1515 svgShape"/><ellipse cx="794.9" cy="1804.6" fill="#1d1616" opacity=".923" rx="103.8" ry="45.6" class="color1d1616 svgShape"/><ellipse cx="794.9" cy="1804.6" fill="#1b1717" opacity=".962" rx="97.8" ry="43" class="color1b1717 svgShape"/><ellipse cx="794.9" cy="1804.6" fill="#191818" rx="91.8" ry="40.3" class="color191818 svgShape"/></g><linearGradient id="a" x1="3965.382" x2="3882.501" y1="-1602.28" y2="-1084.274" gradientTransform="rotate(22.347 -2150.333 -5764.215)" gradientUnits="userSpaceOnUse"><stop offset="0" stop-color="#fafafa" class="stopColorfafafa svgShape"/><stop offset="1" stop-color="#eaeaea" class="stopColoreaeaea svgShape"/></linearGradient><polygon fill="url(#a)" points="1869 950.7 1507.2 802 1709.3 310.3 1976.2 420 2027.8 564.5"/><polygon fill="#d1d1d1" points="1976.2 420 1931.2 529.6 2027.8 564.5" class="colord1d1d1 svgShape"/><path fill="#d1d1d1" d="M1961.3 577.2l-249.2-102.4c-2.7-1.1-4-4.2-2.9-7l0 0c1.1-2.7 4.2-4 7-2.9l249.2 102.4c2.7 1.1 4 4.2 2.9 7l0 0C1967.2 577 1964 578.3 1961.3 577.2zM1947.6 610.7l-249.2-102.4c-2.7-1.1-4-4.2-2.9-7v0c1.1-2.7 4.2-4 7-2.9l249.2 102.4c2.7 1.1 4 4.2 2.9 7l0 0C1953.4 610.5 1950.3 611.8 1947.6 610.7zM1933.8 644.2l-249.2-102.4c-2.7-1.1-4-4.2-2.9-7l0 0c1.1-2.7 4.2-4 7-2.9l249.2 102.4c2.7 1.1 4 4.2 2.9 7v0C1939.6 644 1936.5 645.3 1933.8 644.2zM1920 677.6l-249.2-102.4c-2.7-1.1-4-4.2-2.9-7l0 0c1.1-2.7 4.2-4 7-2.9l249.2 102.4c2.7 1.1 4 4.2 2.9 7l0 0C1925.9 677.4 1922.8 678.8 1920 677.6zM1906.3 711.1l-249.2-102.4c-2.7-1.1-4-4.2-2.9-7v0c1.1-2.7 4.2-4 7-2.9l249.2 102.4c2.7 1.1 4 4.2 2.9 7l0 0C1912.1 710.9 1909 712.2 1906.3 711.1zM1892.5 744.6l-249.2-102.4c-2.7-1.1-4-4.2-2.9-7l0 0c1.1-2.7 4.2-4 7-2.9l249.2 102.4c2.7 1.1 4 4.2 2.9 7v0C1898.4 744.4 1895.2 745.7 1892.5 744.6zM1878.7 778.1l-249.2-102.4c-2.7-1.1-4-4.2-2.9-7h0c1.1-2.7 4.2-4 7-2.9l249.2 102.4c2.7 1.1 4 4.2 2.9 7l0 0C1884.6 777.9 1881.5 779.2 1878.7 778.1zM1865 811.6l-249.2-102.4c-2.7-1.1-4-4.2-2.9-7v0c1.1-2.7 4.2-4 7-2.9L1869 801.7c2.7 1.1 4 4.2 2.9 7l0 0C1870.8 811.4 1867.7 812.7 1865 811.6zM1851.2 845L1602 742.6c-2.7-1.1-4-4.2-2.9-7l0 0c1.1-2.7 4.2-4 7-2.9l249.2 102.4c2.7 1.1 4 4.2 2.9 7l0 0C1857.1 844.9 1853.9 846.2 1851.2 845z" class="colord1d1d1 svgShape"/><linearGradient id="b" x1="1929.947" x2="981.957" y1="968.224" y2="1500.063" gradientUnits="userSpaceOnUse"><stop offset="0" stop-color="#7f7f7f" class="stopColor7f7f7f svgShape"/><stop offset="1" stop-color="#444444" class="stopColor444 svgShape"/></linearGradient><path fill="url(#b)" d="M1083.8,773.5L969,1449c-4.4,26,13,50.7,38.9,55.2l901.2,158.8c36.7,6.5,71.6-18.2,77.9-54.9l144.6-850.7     c6.4-37.9-23.4-72.3-61.9-71.2l-916.1,26.5C1118.9,713.8,1089.6,739.2,1083.8,773.5z"/><linearGradient id="c" x1="1928.447" x2="980.457" y1="965.475" y2="1497.313" gradientUnits="userSpaceOnUse"><stop offset="0" stop-color="#7f7f7f" class="stopColor7f7f7f svgShape"/><stop offset=".122" stop-color="#787878" class="stopColor787878 svgShape"/><stop offset=".293" stop-color="#ffffff" class="stopColorfff svgShape"/><stop offset=".474" stop-color="#646464" class="stopColor646464 svgShape"/><stop offset="1" stop-color="#444444" class="stopColor444 svgShape"/></linearGradient><path fill="url(#c)" d="M1082.3,770.8l-114.8,675.5c-4.4,26,13,50.7,38.9,55.2l901.2,158.8c36.7,6.5,71.6-18.2,77.9-54.9     l144.6-850.7c6.4-37.9-23.4-72.3-61.9-71.2L1152.2,710C1117.4,711,1088.1,736.5,1082.3,770.8z"/><linearGradient id="d" x1="948.487" x2="2112.693" y1="1150.523" y2="1150.523" gradientUnits="userSpaceOnUse"><stop offset="0" stop-color="#7f7f7f" class="stopColor7f7f7f svgShape"/><stop offset="1" stop-color="#444444" class="stopColor444 svgShape"/></linearGradient><path fill="url(#d)" d="M1064,748.9l-114.8,675.5c-4.4,26,13,50.7,38.9,55.2l901.2,158.8c36.7,6.5,71.6-18.2,77.9-54.9l144.6-850.7     c6.4-37.9-23.4-72.3-61.9-71.2l-916.1,26.5C1099.1,689.2,1069.8,714.6,1064,748.9z"/><linearGradient id="e" x1="1615.967" x2="1427.733" y1="756.36" y2="1524.983" gradientUnits="userSpaceOnUse"><stop offset="0" stop-color="#fbfbfb" class="stopColorfbfbfb svgShape"/><stop offset="1" stop-color="#e5e5e5" class="stopColore5e5e5 svgShape"/></linearGradient><path fill="url(#e)" d="M1901.1,1608.1c-2.1,0-4.2-0.2-6.3-0.6l-901.2-158.8c-8.9-1.6-15-10.1-13.4-19.1l114.8-675.5     c3.3-19.5,20.1-34.1,39.8-34.6l917-26.6c8.7,0,16.9,3.8,22.6,10.5c3.3,3.9,8.6,12.3,6.6,24.1l-144.6,850.7     C1933.3,1595.5,1918.5,1608.1,1901.1,1608.1L1901.1,1608.1z"/><linearGradient id="f" x1="957.244" x2="2112.689" y1="1163.043" y2="1163.043" gradientUnits="userSpaceOnUse"><stop offset="0" stop-color="#7f7f7f" class="stopColor7f7f7f svgShape"/><stop offset="1" stop-color="#fdfdff" class="stopColorfdfdff svgShape"/></linearGradient><path fill="url(#f)" d="M2100.9,686.7c8.8,12.5,12.9,28.5,10.1,45l-144.6,850.7c-6.2,36.7-41.2,61.4-77.9,54.9l-901.2-158.8     c-12.5-2.2-22.9-9.1-30-18.5c7,10,17.9,17.3,30.9,19.6l901.2,158.8c36.7,6.5,71.6-18.2,77.9-54.9l144.6-850.7     C2114.7,715.7,2110.2,699.4,2100.9,686.7z"/><linearGradient id="g" x1="728.118" x2="1464.951" y1="1224.595" y2="1224.595" gradientTransform="matrix(1.0004 -.01377 0 1 .92 -31.337)" gradientUnits="userSpaceOnUse"><stop offset="0" stop-color="#fe7f0a" class="stopColorfe7f0a svgShape"/><stop offset="1" stop-color="#ffb538" class="stopColorffb538 svgShape"/></linearGradient><path fill="url(#g)" d="M799.2,949.2L730,1306.4c-3.6,18.4,8.7,36,27.1,38.9l583.6,92.4c18.8,3,36.8-9.7,40.5-28.5l84.8-437      c3.6-18.6-10.1-35.8-29-36.3l-599.4-17.3C819,917.9,802.8,931,799.2,949.2z"/><linearGradient id="h" x1="1449.264" x2="795.517" y1="1077.318" y2="1298.037" gradientTransform="matrix(1.0004 -.01377 0 1 .92 -31.337)" gradientUnits="userSpaceOnUse"><stop offset="0" stop-color="#fe7f0a" class="stopColorfe7f0a svgShape"/><stop offset="1" stop-color="#ffb538" class="stopColorffb538 svgShape"/></linearGradient><path fill="url(#h)" d="M783,929l-69.3,357.2c-3.6,18.4,8.7,36,27.1,38.9l583.6,92.4c18.8,3,36.8-9.7,40.5-28.5l84.8-437      c3.6-18.6-10.1-35.8-29-36.3l-599.4-17.3C802.8,897.7,786.6,910.8,783,929z"/><path fill="none" stroke="#fff" stroke-linecap="round" stroke-linejoin="round" stroke-miterlimit="10" stroke-width="12.613" d="M794.9,1269c0,0,23.5-102.9,106.1-96.7c78.9,5.9,47.5,123.4,164.2,123.4c139.6,0,93.5-344.9,335.7-270.4" class="colorStrokefff svgStroke"/><linearGradient id="i" x1="1018.162" x2="874.009" y1="944.805" y2="993.474" gradientUnits="userSpaceOnUse"><stop offset="0" stop-color="#fe7f0a" class="stopColorfe7f0a svgShape"/><stop offset="1" stop-color="#ffb538" class="stopColorffb538 svgShape"/></linearGradient><line x1="843" x2="1035.4" y1="965.4" y2="977.5" fill="url(#i)" stroke="#fff" stroke-linecap="round" stroke-linejoin="round" stroke-miterlimit="10" stroke-width="9.238" class="colorStrokefff svgStroke"/><linearGradient id="j" x1="1008.045" x2="864.925" y1="980.29" y2="1028.611" gradientUnits="userSpaceOnUse"><stop offset="0" stop-color="#fe7f0a" class="stopColorfe7f0a svgShape"/><stop offset="1" stop-color="#ffb538" class="stopColorffb538 svgShape"/></linearGradient><line x1="833.5" x2="1025.9" y1="998.7" y2="1014.8" fill="url(#j)" stroke="#fff" stroke-linecap="round" stroke-linejoin="round" stroke-miterlimit="10" stroke-width="9.238" class="colorStrokefff svgStroke"/><linearGradient id="k" x1="1000.239" x2="855.789" y1="1013.784" y2="1062.553" gradientUnits="userSpaceOnUse"><stop offset="0" stop-color="#fe7f0a" class="stopColorfe7f0a svgShape"/><stop offset="1" stop-color="#ffb538" class="stopColorffb538 svgShape"/></linearGradient><line x1="823.9" x2="1018.4" y1="1032" y2="1049" fill="url(#k)" stroke="#fff" stroke-linecap="round" stroke-linejoin="round" stroke-miterlimit="10" stroke-width="9.238" class="colorStrokefff svgStroke"/><g><linearGradient id="l" x1="5237.48" x2="5148.53" y1="-1397.598" y2="-1153.298" gradientTransform="matrix(.8407 .5415 -.6333 .764 -3929.823 -101.661)" gradientUnits="userSpaceOnUse" fill="none"><stop offset="0" stop-color="#adadad" class="stopColoradadad svgShape"/><stop offset="1" stop-color="#e5e5e5" class="stopColore5e5e5 svgShape"/></linearGradient><path fill="url(#l)" d="M1332,1891.3c-5.5,4.4-11.2,8.4-17,12.1l-32.3-31.9c-14.8,7.3-30.3,11.6-46,13l-14.1,45      c-13.5-0.2-27-2.1-40-5.5l-1-47.1c-14.7-5.5-28.5-13.9-40.6-25l-39.9,21.9c-4.6-5.1-8.9-10.5-13-16.2      c-4.1-5.7-7.8-11.6-11.1-17.7l30.8-34.7c-6.7-15.4-10.5-31.8-11.4-48.3l-42.4-14c0.5-14.3,2.5-28.5,6-42.4l44.6-2      c5.6-15.6,13.7-30.3,24.4-43.4l-20-41.7c4.9-4.9,10.1-9.6,15.6-14c5.5-4.4,11.2-8.4,17-12l32.3,31.9c14.7-7.3,30.3-11.6,46-13      l14.1-45c13.5,0.2,27,2,40,5.6l1.1,47.1c14.7,5.6,28.5,13.9,40.6,25l39.9-21.9c4.6,5.1,8.9,10.5,13,16.2      c4.1,5.8,7.8,11.7,11.1,17.7l-30.8,34.7c6.7,15.5,10.4,31.9,11.4,48.4l42.3,14.1c-0.4,14.3-2.5,28.5-6,42.4l-44.6,2      c-5.5,15.6-13.7,30.3-24.4,43.3l20,41.7C1342.7,1882.3,1337.5,1886.9,1332,1891.3z M1290.2,1695.8      c-25.2-35.6-73.4-42.3-107.5-14.9c-34.2,27.3-41.4,78.4-16.2,113.9c25.2,35.6,73.4,42.3,107.6,14.9      C1308.3,1782.4,1315.5,1731.4,1290.2,1695.8"/><linearGradient id="m" x1="1335.225" x2="1383.45" y1="1673.497" y2="1637.328" gradientUnits="userSpaceOnUse" fill="none"><stop offset="0" stop-color="#adadad" class="stopColoradadad svgShape"/><stop offset="1" stop-color="#e5e5e5" class="stopColore5e5e5 svgShape"/></linearGradient><polygon fill="url(#m)" points="1356.7 1635.2 1379.7 1650.8 1348.9 1685.5 1325.8 1669.9"/><linearGradient id="n" x1="1352.883" x2="1361.886" y1="1628.481" y2="1621.729" gradientUnits="userSpaceOnUse" fill="none"><stop offset="0" stop-color="#adadad" class="stopColoradadad svgShape"/><stop offset="1" stop-color="#e5e5e5" class="stopColore5e5e5 svgShape"/></linearGradient><polygon fill="url(#n)" points="1332.6 1601.2 1355.7 1616.9 1379.7 1650.8 1356.7 1635.2"/><linearGradient id="o" x1="1250.049" x2="1282.316" y1="1589.483" y2="1565.283" gradientUnits="userSpaceOnUse" fill="none"><stop offset="0" stop-color="#adadad" class="stopColoradadad svgShape"/><stop offset="1" stop-color="#e5e5e5" class="stopColore5e5e5 svgShape"/></linearGradient><polygon fill="url(#o)" points="1251.1 1551.1 1274.1 1566.7 1274.1 1609.1 1252.1 1598.2"/><linearGradient id="p" x1="1133.462" x2="1144.092" y1="1589.312" y2="1581.34" gradientUnits="userSpaceOnUse" fill="none"><stop offset="0" stop-color="#adadad" class="stopColoradadad svgShape"/><stop offset="1" stop-color="#e5e5e5" class="stopColore5e5e5 svgShape"/></linearGradient><polygon fill="url(#p)" points="1118.7 1571.6 1141.7 1587.2 1156 1601.2 1151 1603.5"/><linearGradient id="q" x1="1046.342" x2="1068.852" y1="1743.33" y2="1726.448" gradientUnits="userSpaceOnUse" fill="none"><stop offset="0" stop-color="#adadad" class="stopColoradadad svgShape"/><stop offset="1" stop-color="#e5e5e5" class="stopColore5e5e5 svgShape"/></linearGradient><polygon fill="url(#q)" points="1031.1 1727.1 1073.4 1741.1 1075 1749.5 1054.1 1742.7"/><linearGradient id="r" x1="1092.134" x2="1139.994" y1="1868.014" y2="1832.12" gradientUnits="userSpaceOnUse" fill="none"><stop offset="0" stop-color="#adadad" class="stopColoradadad svgShape"/><stop offset="1" stop-color="#e5e5e5" class="stopColore5e5e5 svgShape"/></linearGradient><polygon fill="url(#r)" points="1078.1 1858.1 1101.2 1873.7 1141 1851.8 1118 1836.2"/><linearGradient id="s" x1="1202.978" x2="1244.821" y1="1910.584" y2="1879.202" gradientUnits="userSpaceOnUse" fill="none"><stop offset="0" stop-color="#adadad" class="stopColoradadad svgShape"/><stop offset="1" stop-color="#e5e5e5" class="stopColore5e5e5 svgShape"/></linearGradient><polygon fill="url(#s)" points="1213.7 1868.9 1236.8 1884.5 1222.7 1929.5 1199.7 1913.8"/><linearGradient id="t" x1="1320.236" x2="1336.278" y1="1853.046" y2="1841.014" gradientUnits="userSpaceOnUse" fill="none"><stop offset="0" stop-color="#adadad" class="stopColoradadad svgShape"/><stop offset="1" stop-color="#e5e5e5" class="stopColore5e5e5 svgShape"/></linearGradient><polygon fill="url(#t)" points="1304.6 1820 1327.6 1835.6 1347.6 1877.3 1324.5 1861.7"/><linearGradient id="u" x1="1303.438" x2="1348.324" y1="1894.823" y2="1861.158" gradientUnits="userSpaceOnUse" fill="none"><stop offset="0" stop-color="#adadad" class="stopColoradadad svgShape"/><stop offset="1" stop-color="#e5e5e5" class="stopColore5e5e5 svgShape"/></linearGradient><polygon fill="url(#u)" points="1292 1887.8 1315 1903.4 1347.6 1877.3 1324.5 1861.7"/><linearGradient id="v" x1="1179.001" x2="1212.413" y1="1928.009" y2="1902.95" gradientUnits="userSpaceOnUse" fill="none"><stop offset="0" stop-color="#adadad" class="stopColoradadad svgShape"/><stop offset="1" stop-color="#e5e5e5" class="stopColore5e5e5 svgShape"/></linearGradient><polygon fill="url(#v)" points="1159.6 1908.3 1182.7 1923.9 1222.7 1929.5 1199.7 1913.8"/><linearGradient id="w" x1="1375.482" x2="1410.24" y1="1770.769" y2="1744.7" gradientUnits="userSpaceOnUse" fill="none"><stop offset="0" stop-color="#adadad" class="stopColoradadad svgShape"/><stop offset="1" stop-color="#e5e5e5" class="stopColore5e5e5 svgShape"/></linearGradient><polygon fill="url(#w)" points="1379.6 1732.3 1402.7 1747.9 1396.7 1790.3 1373.6 1774.7"/><linearGradient id="x" x1="1310.705" x2="1358.99" y1="1819.309" y2="1783.095" gradientUnits="userSpaceOnUse" fill="none"><stop offset="0" stop-color="#adadad" class="stopColoradadad svgShape"/><stop offset="1" stop-color="#e5e5e5" class="stopColore5e5e5 svgShape"/></linearGradient><polygon fill="url(#x)" points="1329 1776.6 1352 1792.3 1327.6 1835.6 1304.6 1820"/><linearGradient id="y" x1="5209.567" x2="5120.617" y1="-1398.243" y2="-1153.943" gradientTransform="matrix(.8407 .5415 -.6333 .764 -3929.823 -101.661)" gradientUnits="userSpaceOnUse" fill="none"><stop offset="0" stop-color="#fbfbfb" class="stopColorfbfbfb svgShape"/><stop offset="1" stop-color="#e5e5e5" class="stopColore5e5e5 svgShape"/></linearGradient><path fill="url(#y)" d="M1309,1875.7c-5.5,4.4-11.2,8.4-17,12.1l-32.3-31.9c-14.8,7.3-30.3,11.6-46,13l-14.1,45      c-13.5-0.2-27-2.1-40-5.5l-1-47.1c-14.7-5.5-28.5-13.9-40.6-25l-39.9,21.9c-4.6-5.1-8.9-10.5-13-16.2      c-4.1-5.7-7.8-11.6-11.1-17.7l30.8-34.7c-6.7-15.4-10.5-31.8-11.4-48.3l-42.4-14c0.5-14.3,2.5-28.5,6-42.4l44.6-2      c5.6-15.6,13.7-30.3,24.4-43.4l-20-41.7c4.9-4.9,10.1-9.6,15.6-14s11.2-8.4,17-12l32.3,31.9c14.7-7.3,30.3-11.6,46-13l14.1-45      c13.5,0.2,27,2,40,5.6l1.1,47.1c14.7,5.6,28.5,13.9,40.6,25l39.9-21.9c4.6,5.1,8.9,10.5,13,16.2c4.1,5.8,7.8,11.7,11.1,17.7      l-30.8,34.7c6.7,15.5,10.4,31.9,11.4,48.4l42.3,14.1c-0.4,14.3-2.5,28.5-6,42.4l-44.6,2c-5.5,15.6-13.7,30.3-24.4,43.3l20,41.7      C1319.7,1866.6,1314.5,1871.3,1309,1875.7z M1267.2,1680.2c-25.2-35.6-73.4-42.3-107.5-14.9c-34.2,27.3-41.4,78.4-16.2,113.9      c25.2,35.6,73.4,42.3,107.6,14.9C1285.2,1766.8,1292.4,1715.8,1267.2,1680.2"/></g><g><linearGradient id="z" x1="1795.432" x2="1795.432" y1="2066.758" y2="1760.018" gradientUnits="userSpaceOnUse" fill="none"><stop offset="0" stop-color="#cc965c" class="stopColorcc965c svgShape"/><stop offset=".262" stop-color="#fff7c5" class="stopColorfff7c5 svgShape"/><stop offset="1" stop-color="#d88d35" class="stopColord88d35 svgShape"/></linearGradient><ellipse cx="1795.4" cy="1872.3" fill="url(#z)" rx="191.3" ry="201.2"/><linearGradient id="A" x1="1751.729" x2="1782.795" y1="1669.47" y2="2068.898" gradientUnits="userSpaceOnUse" fill="none"><stop offset="0" stop-color="#cc965c" class="stopColorcc965c svgShape"/><stop offset=".262" stop-color="#fff7c5" class="stopColorfff7c5 svgShape"/><stop offset="1" stop-color="#d88d35" class="stopColord88d35 svgShape"/></linearGradient><ellipse cx="1767.5" cy="1872.4" fill="url(#A)" rx="191.3" ry="201.2"/><linearGradient id="B" x1="1733.132" x2="1695.43" y1="1813.716" y2="1996.312" gradientUnits="userSpaceOnUse" fill="none"><stop offset="0" stop-color="#cc965c" class="stopColorcc965c svgShape"/><stop offset="1" stop-color="#d88d35" class="stopColord88d35 svgShape"/></linearGradient><path fill="url(#B)" d="M1799.4,2030.7c-10.3,2.3-20.9,3.5-31.9,3.5c-85,0-154-72.5-154-161.9c0-87.5,66-158.8,148.5-161.8     c-69.6,15.5-121.9,80.5-121.9,158.4c0,89.4,68.9,161.9,153.9,161.9C1795.9,2030.8,1797.6,2030.8,1799.4,2030.7z"/><linearGradient id="C" x1="1781.305" x2="1780.241" y1="1710.51" y2="2030.774" gradientUnits="userSpaceOnUse" fill="none"><stop offset="0" stop-color="#cc965c" class="stopColorcc965c svgShape"/><stop offset=".262" stop-color="#fff7c5" class="stopColorfff7c5 svgShape"/><stop offset="1" stop-color="#d88d35" class="stopColord88d35 svgShape"/></linearGradient><path fill="url(#C)" d="M1921.4,1872.3c0,78-52.3,143-122,158.4c-1.8,0.1-3.5,0.1-5.4,0.1c-85,0-153.9-72.5-153.9-161.9     c0-77.9,52.3-143,121.9-158.4c1.8-0.1,3.6-0.1,5.5-0.1C1852.5,1710.5,1921.4,1782.9,1921.4,1872.3z"/><path fill="#fefeff" d="M1774.6,1945.5v-18.4c-10.6-0.2-21.5-3.5-27.9-8l4.4-12.2c6.6,4.4,16,7.8,26.3,7.8      c12.9,0,21.7-7.5,21.7-17.9c0-10-7.1-16.2-20.6-21.7c-18.6-7.3-30.1-15.7-30.1-31.5c0-15.1,10.8-26.6,27.5-29.4v-18.4h11.3v17.7      c10.9,0.4,18.4,3.3,23.7,6.4l-4.6,12c-3.8-2.2-11.3-6.2-23-6.2c-14,0-19.3,8.4-19.3,15.7c0,9.5,6.7,14.2,22.6,20.8      c18.8,7.7,28.3,17.1,28.3,33.4c0,14.4-10,27.9-28.8,31v19H1774.6z" class="colorfefeff svgShape"/></g><linearGradient id="D" x1="1051.078" x2="1078.052" y1="453.562" y2="800.371" gradientUnits="userSpaceOnUse"><stop offset="0" stop-color="#3abaf9" class="stopColor3abaf9 svgShape"/><stop offset="1" stop-color="#267ebd" class="stopColor267ebd svgShape"/></linearGradient><polygon fill="url(#D)" points="871.6 469.6 1311.4 438 1242.3 791.1 814.4 774"/><g><polygon fill="#fcfcfe" points="889.8 702.6 862.1 702.2 868.9 664.8 896.5 665.2" class="colorfcfcfe svgShape"/><polygon fill="#fcfcfe" points="934.3 703.2 906.7 702.8 917.6 643.3 945.2 643.7" class="colorfcfcfe svgShape"/><polygon fill="#fcfcfe" points="978.9 703.7 951.3 703.4 966 631.4 993.6 631.7" class="colorfcfcfe svgShape"/><polygon fill="#fcfcfe" points="1023.5 704.3 995.9 704 1015.1 600.4 1042.8 600.7" class="colorfcfcfe svgShape"/><polygon fill="#fcfcfe" points="1068.1 704.9 1040.5 704.5 1055.5 623.8 1083.1 624.1" class="colorfcfcfe svgShape"/><polygon fill="#fcfcfe" points="1112.7 705.4 1085.1 705.1 1106.5 585.5 1134.2 585.9" class="colorfcfcfe svgShape"/><polygon fill="#fcfcfe" points="1157.3 706 1129.6 705.7 1157.8 547.3 1185.4 547.6" class="colorfcfcfe svgShape"/><polygon fill="#fcfcfe" points="1201.9 706.6 1174.2 706.2 1189.2 625.5 1216.9 625.8" class="colorfcfcfe svgShape"/></g><g><linearGradient id="E" x1="2067.699" x2="2308.738" y1="1356.986" y2="1134.165" gradientUnits="userSpaceOnUse" fill="none"><stop offset="0" stop-color="#3abaf9" class="stopColor3abaf9 svgShape"/><stop offset="1" stop-color="#267ebd" class="stopColor267ebd svgShape"/></linearGradient><path fill="url(#E)" d="M2055.7,986.4l369.6,5.5c17.4,0.3,30.4,16.2,27.1,33.4l-83.4,438.5c-3.6,18.5-21.5,30.7-40.1,27.4     l-351.5-46.6c-19.7-3.5-32.8-22.5-29-42.2l74-388.8C2025.4,997.6,2039.5,986.1,2055.7,986.4z"/><linearGradient id="F" x1="2176.287" x2="2216.887" y1="965.793" y2="1487.788" gradientUnits="userSpaceOnUse" fill="none"><stop offset="0" stop-color="#3abaf9" class="stopColor3abaf9 svgShape"/><stop offset="1" stop-color="#267ebd" class="stopColor267ebd svgShape"/></linearGradient><path fill="url(#F)" d="M2050.5,978.9l369.6,5.5c17.4,0.3,30.4,16.2,27.1,33.4l-83.4,438.5c-3.6,18.5-21.5,30.7-40.1,27.4     l-351.5-46.6c-19.7-3.5-32.8-22.5-29-42.2l74-388.8C2020.2,990.1,2034.2,978.6,2050.5,978.9z"/></g><g><linearGradient id="G" x1="27312.334" x2="27686.514" y1="6806.616" y2="6806.616" gradientTransform="matrix(.582 -.0046 -.0457 .6083 -14895.596 -2368.669)" gradientUnits="userSpaceOnUse" fill="none"><stop offset="0" stop-color="#206751" class="stopColor206751 svgShape"/><stop offset="1" stop-color="#0ba2b3" class="stopColor0ba2b3 svgShape"/></linearGradient><path fill="url(#G)" d="M797.3,1760.7c-60.3,4.7-108.8-43.1-108.4-106.8c0.4-63.7,49.6-119.2,109.9-124     c60.3-4.7,108.8,43.1,108.4,106.8C906.8,1700.4,857.5,1755.9,797.3,1760.7z"/><linearGradient id="H" x1="15466.368" x2="15295.788" y1="488.019" y2="644.01" gradientTransform="rotate(4.289 -6169.765 -193817.159)" gradientUnits="userSpaceOnUse" fill="none"><stop offset="0" stop-color="#3abaf9" class="stopColor3abaf9 svgShape"/><stop offset="1" stop-color="#267ebd" class="stopColor267ebd svgShape"/></linearGradient><path fill="url(#H)" d="M778.7,1750.2c-60.3,4.8-108.8-43-108.4-106.8c0.1-8.2,0.9-16.2,2.5-24c10.7-53.1,54.9-95.8,107.4-99.9     c47.1-3.7,87,24.7,102.1,67.7c4.2,12,6.5,25.2,6.4,39.1C888.2,1690,839,1745.5,778.7,1750.2z"/><path fill="#ffffff" d="M882.3,1587.1c-10.7,53.1-54.9,95.7-107.4,99.9c-47.1,3.7-87-24.7-102.1-67.6     c10.7-53.1,54.9-95.8,107.4-99.9C827.4,1515.8,867.3,1544.1,882.3,1587.1z" opacity=".26" class="colorfff svgShape"/><polygon fill="#ffffff" points="743.5 1597.2 750.9 1670 826 1644.9 824.1 1622.9 767.1 1642.8 761.8 1590.8" class="colorfff svgShape"/></g><g><path fill="none" stroke="none" stroke-linecap="round" stroke-linejoin="round" stroke-miterlimit="10" stroke-width="1.866" d="M1930,1188.5c-141.8-10.1-283.7-18-425.3-31.1c22.1-117.4,44.3-234.8,65.6-352.4       c143.6-1.5,287-9.6,430.6-11.3C1977.4,925.3,1953.7,1056.9,1930,1188.5z"/><path fill="none" stroke="none" stroke-linecap="round" stroke-linejoin="round" stroke-miterlimit="10" stroke-width="1.891" d="M1610.6 804.5c-21.5 118.9-43.8 237.7-66 356.5M1646.1 803.7c-21.6 120.2-44 240.2-66.3 360.2M1681.7 802.8c-21.8 121.4-44.2 242.7-66.6 363.9M1717.5 801.7c-22 122.6-44.5 245.1-67 367.7M1753.2 800.6c-22.1 123.8-44.8 247.6-67.4 371.4M1788.9 799.3c-22.3 125.1-45.1 250-67.8 375M1824.6 798.1c-22.5 126.3-45.4 252.4-68.2 378.6M1860.2 796.9c-22.7 127.4-45.7 254.8-68.7 382.1M1895.6 795.9c-22.9 128.5-46 257-69.2 385.5M1930.9 794.9c-23.1 129.6-46.4 259.2-69.7 388.8M1965.9 794.2c-23.4 130.6-46.8 261.2-70.3 391.9"/><path fill="none" stroke="none" stroke-linecap="round" stroke-linejoin="round" stroke-miterlimit="10" stroke-width="1.866" d="M1564.9 835.2c143.5-1 286.9-8.5 430.4-9.9M1559.4 865c143.4-.3 286.8-6.9 430.2-7.9M1554 894.6c143.3.6 286.6-5.1 429.9-5.4M1548.5 924c143.2 1.6 286.3-2.9 429.5-2.4M1543.1 953.3c143 2.8 286-.4 429.1.9M1537.6 982.5c142.8 4.1 285.7 2.2 428.6 4.7M1532.2 1011.6c142.6 5.4 285.4 5.1 428.1 8.7M1526.7 1040.5c142.4 6.9 285.1 8.1 427.6 12.9M1521.3 1069.5c142.2 8.4 284.7 11.2 427 17.3M1515.9 1098.3c142 9.9 284.3 14.4 426.5 21.8M1510.4 1127.2c141.8 11.5 283.9 17.6 425.9 26.3"/><linearGradient id="I" x1="1545.517" x2="1545.517" y1="951.924" y2="1120.768" gradientUnits="userSpaceOnUse" fill="none"><stop offset="0" stop-color="#3abaf9" class="stopColor3abaf9 svgShape"/><stop offset="1" stop-color="#267ebd" class="stopColor267ebd svgShape"/></linearGradient><path fill="url(#I)" d="M1543.2,1063c7.8,0.4,11.7,0.6,19.6,1c-5,26.6-9.9,53.2-14.9,79.7c-7.8-0.6-11.7-0.9-19.5-1.6       C1533.3,1115.8,1538.2,1089.4,1543.2,1063z"/><linearGradient id="J" x1="1584.632" x2="1584.632" y1="953.63" y2="1123.308" gradientUnits="userSpaceOnUse" fill="none"><stop offset="0" stop-color="#3abaf9" class="stopColor3abaf9 svgShape"/><stop offset="1" stop-color="#267ebd" class="stopColor267ebd svgShape"/></linearGradient><path fill="url(#J)" d="M1587,1013.6c7.9,0.2,11.8,0.3,19.7,0.5c-8.2,44.1-16.4,88.2-24.6,132.3c-7.8-0.6-11.8-0.9-19.6-1.5       C1570.7,1101.1,1578.9,1057.4,1587,1013.6z"/><linearGradient id="K" x1="1615.772" x2="1615.772" y1="953.156" y2="1125.448" gradientUnits="userSpaceOnUse" fill="none"><stop offset="0" stop-color="#3abaf9" class="stopColor3abaf9 svgShape"/><stop offset="1" stop-color="#267ebd" class="stopColor267ebd svgShape"/></linearGradient><path fill="url(#K)" d="M1614.9,1050.5c7.9,0.3,11.8,0.4,19.7,0.7c-6,32.6-12,65.1-18,97.7c-7.9-0.6-11.8-0.8-19.6-1.4       C1602.9,1115.2,1608.9,1082.8,1614.9,1050.5z"/><linearGradient id="L" x1="1655.294" x2="1655.294" y1="954.1" y2="1127.639" gradientUnits="userSpaceOnUse" fill="none"><stop offset="0" stop-color="#3abaf9" class="stopColor3abaf9 svgShape"/><stop offset="1" stop-color="#267ebd" class="stopColor267ebd svgShape"/></linearGradient><path fill="url(#L)" d="M1659.4,997.5c7.9,0.1,11.9,0.2,19.8,0.3c-9.4,51.2-18.8,102.3-28.2,153.5c-7.9-0.5-11.8-0.8-19.7-1.3       C1640.7,1099.1,1650.1,1048.3,1659.4,997.5z"/><linearGradient id="M" x1="1687.45" x2="1687.45" y1="953.695" y2="1129.571" gradientUnits="userSpaceOnUse" fill="none"><stop offset="0" stop-color="#3abaf9" class="stopColor3abaf9 svgShape"/><stop offset="1" stop-color="#267ebd" class="stopColor267ebd svgShape"/></linearGradient><path fill="url(#M)" d="M1689.3,1024.4c7.9,0.2,11.9,0.2,19.8,0.4c-7.8,42.9-15.7,85.8-23.5,128.7c-7.9-0.5-11.8-0.8-19.7-1.3       C1673.7,1109.6,1681.5,1067,1689.3,1024.4z"/><linearGradient id="N" x1="1724.44" x2="1724.44" y1="953.879" y2="1131.497" gradientUnits="userSpaceOnUse" fill="none"><stop offset="0" stop-color="#3abaf9" class="stopColor3abaf9 svgShape"/><stop offset="1" stop-color="#267ebd" class="stopColor267ebd svgShape"/></linearGradient><path fill="url(#N)" d="M1728.8,998.3c7.9,0.1,11.9,0.1,19.8,0.2c-9.5,52.4-19,104.8-28.6,157.2c-7.9-0.5-11.8-0.7-19.6-1.2       C1709.8,1102.4,1719.3,1050.3,1728.8,998.3z"/><linearGradient id="O" x1="1756.491" x2="1756.491" y1="953.285" y2="1133.274" gradientUnits="userSpaceOnUse" fill="none"><stop offset="0" stop-color="#3abaf9" class="stopColor3abaf9 svgShape"/><stop offset="1" stop-color="#267ebd" class="stopColor267ebd svgShape"/></linearGradient><path fill="url(#O)" d="M1758.5,1025.6c7.9,0.1,11.8,0.2,19.7,0.3c-7.9,43.9-15.9,87.9-23.9,131.8c-7.8-0.5-11.7-0.7-19.6-1.2       C1742.7,1112.9,1750.6,1069.3,1758.5,1025.6z"/><linearGradient id="P" x1="1793.361" x2="1793.361" y1="953.437" y2="1135.106" gradientUnits="userSpaceOnUse" fill="none"><stop offset="0" stop-color="#3abaf9" class="stopColor3abaf9 svgShape"/><stop offset="1" stop-color="#267ebd" class="stopColor267ebd svgShape"/></linearGradient><path fill="url(#P)" d="M1798,998.9c7.9,0.1,11.8,0.1,19.7,0.2c-9.7,53.6-19.3,107.2-29,160.8c-7.8-0.5-11.7-0.7-19.5-1.2       C1778.7,1105.4,1788.4,1052.1,1798,998.9z"/><linearGradient id="Q" x1="1831.82" x2="1831.82" y1="953.784" y2="1136.948" gradientUnits="userSpaceOnUse" fill="none"><stop offset="0" stop-color="#3abaf9" class="stopColor3abaf9 svgShape"/><stop offset="1" stop-color="#267ebd" class="stopColor267ebd svgShape"/></linearGradient><path fill="url(#Q)" d="M1840.7,952.8c7.9,0,11.8,0,19.6-0.1c-12.5,69.7-25.1,139.4-37.6,209.2c-7.8-0.5-11.6-0.7-19.4-1.2       C1815.8,1091.4,1828.3,1022.1,1840.7,952.8z"/><linearGradient id="R" x1="1864.445" x2="1864.445" y1="953.517" y2="1138.724" gradientUnits="userSpaceOnUse" fill="none"><stop offset="0" stop-color="#3abaf9" class="stopColor3abaf9 svgShape"/><stop offset="1" stop-color="#267ebd" class="stopColor267ebd svgShape"/></linearGradient><path fill="url(#R)" d="M1872.1,969.3c7.8,0,11.7,0,19.5,0.1c-11.6,64.8-23.3,129.7-34.9,194.5c-7.7-0.5-11.6-0.7-19.3-1.2       C1848.9,1098.3,1860.5,1033.8,1872.1,969.3z"/><linearGradient id="S" x1="1909.93" x2="1909.93" y1="955.546" y2="1140.804" gradientUnits="userSpaceOnUse" fill="none"><stop offset="0" stop-color="#3abaf9" class="stopColor3abaf9 svgShape"/><stop offset="1" stop-color="#267ebd" class="stopColor267ebd svgShape"/></linearGradient><path fill="url(#S)" d="M1929.3,840.6c7.8-0.1,11.7-0.2,19.4-0.3c-19.4,108.6-38.9,217.2-58.4,325.8c-7.6-0.5-11.5-0.7-19.2-1.2       C1890.5,1056.7,1910,948.7,1929.3,840.6z"/><linearGradient id="T" x1="1934.089" x2="1934.089" y1="954.008" y2="1142.506" gradientUnits="userSpaceOnUse" fill="none"><stop offset="0" stop-color="#3abaf9" class="stopColor3abaf9 svgShape"/><stop offset="1" stop-color="#267ebd" class="stopColor267ebd svgShape"/></linearGradient><path fill="url(#T)" d="M1944.3,946.3c7.7,0,11.6,0.1,19.2,0.1c-13.3,73.9-26.6,147.8-39.8,221.7c-7.6-0.5-11.4-0.7-19-1.2       C1917.9,1093.4,1931.1,1019.9,1944.3,946.3z"/><linearGradient id="U" x1="1543.459" x2="1543.459" y1="802.227" y2="808.054" gradientUnits="userSpaceOnUse" fill="none"><stop offset="0" stop-color="#3abaf9" class="stopColor3abaf9 svgShape"/><stop offset="1" stop-color="#cccccc" class="stopColorccc svgShape"/></linearGradient><path fill="url(#U)" d="M1555.3,808c-9.9,0.1-14.8,0.1-24.7,0c-1.6,0-2.7-1.3-2.4-2.9l0,0c0.3-1.6,1.9-2.9,3.5-2.9      c9.9,0,14.8,0,24.7-0.1c1.6,0,2.8,1.3,2.5,2.9l0,0C1558.5,806.7,1556.9,808,1555.3,808z"/><linearGradient id="V" x1="1537.976" x2="1537.976" y1="832.36" y2="838.115" gradientUnits="userSpaceOnUse" fill="none"><stop offset="0" stop-color="#3abaf9" class="stopColor3abaf9 svgShape"/><stop offset="1" stop-color="#cccccc" class="stopColorccc svgShape"/></linearGradient><path fill="url(#V)" d="M1549.8,838.1c-9.9,0-14.8,0-24.7,0c-1.6,0-2.7-1.3-2.4-2.9l0,0c0.3-1.6,1.9-2.8,3.5-2.8      c9.9,0,14.8,0,24.7,0c1.6,0,2.8,1.3,2.5,2.9l0,0C1553,836.8,1551.4,838.1,1549.8,838.1z"/><linearGradient id="W" x1="1532.501" x2="1532.501" y1="862.164" y2="867.985" gradientUnits="userSpaceOnUse" fill="none"><stop offset="0" stop-color="#3abaf9" class="stopColor3abaf9 svgShape"/><stop offset="1" stop-color="#cccccc" class="stopColorccc svgShape"/></linearGradient><path fill="url(#W)" d="M1544.3,868c-9.9,0-14.8-0.1-24.7-0.2c-1.6,0-2.7-1.3-2.4-2.9v0c0.3-1.6,1.9-2.8,3.5-2.8      c9.8,0.1,14.8,0.1,24.7,0.1c1.6,0,2.8,1.3,2.5,2.9l0,0C1547.5,866.7,1546,868,1544.3,868z"/><linearGradient id="X" x1="1527.032" x2="1527.032" y1="891.726" y2="897.655" gradientUnits="userSpaceOnUse" fill="none"><stop offset="0" stop-color="#3abaf9" class="stopColor3abaf9 svgShape"/><stop offset="1" stop-color="#cccccc" class="stopColorccc svgShape"/></linearGradient><path fill="url(#X)" d="M1538.8,897.7c-9.9-0.1-14.8-0.2-24.7-0.3c-1.6,0-2.7-1.3-2.4-2.9l0,0c0.3-1.5,1.9-2.8,3.5-2.8      c9.8,0.1,14.8,0.2,24.7,0.3c1.6,0,2.8,1.3,2.5,2.9v0C1542.1,896.4,1540.5,897.7,1538.8,897.7z"/><linearGradient id="Y" x1="1521.569" x2="1521.569" y1="921.074" y2="927.144" gradientUnits="userSpaceOnUse" fill="none"><stop offset="0" stop-color="#3abaf9" class="stopColor3abaf9 svgShape"/><stop offset="1" stop-color="#cccccc" class="stopColorccc svgShape"/></linearGradient><path fill="url(#Y)" d="M1533.4,927.1c-9.9-0.2-14.8-0.3-24.7-0.5c-1.6,0-2.7-1.3-2.4-2.9l0,0c0.3-1.5,1.9-2.8,3.5-2.7      c9.8,0.2,14.8,0.3,24.7,0.5c1.6,0,2.7,1.3,2.5,2.9l0,0C1536.6,925.9,1535,927.2,1533.4,927.1z"/><linearGradient id="Z" x1="1516.11" x2="1516.11" y1="950.234" y2="956.474" gradientUnits="userSpaceOnUse" fill="none"><stop offset="0" stop-color="#3abaf9" class="stopColor3abaf9 svgShape"/><stop offset="1" stop-color="#cccccc" class="stopColorccc svgShape"/></linearGradient><path fill="url(#Z)" d="M1527.9,956.5c-9.9-0.2-14.8-0.4-24.6-0.7c-1.6-0.1-2.7-1.3-2.4-2.9l0,0c0.3-1.5,1.9-2.7,3.5-2.7      c9.8,0.3,14.8,0.4,24.6,0.7c1.6,0,2.7,1.3,2.5,2.9l0,0C1531.1,955.3,1529.5,956.5,1527.9,956.5z"/><linearGradient id="aa" x1="1510.656" x2="1510.656" y1="979.235" y2="985.669" gradientUnits="userSpaceOnUse" fill="none"><stop offset="0" stop-color="#3abaf9" class="stopColor3abaf9 svgShape"/><stop offset="1" stop-color="#cccccc" class="stopColorccc svgShape"/></linearGradient><path fill="url(#aa)" d="M1522.4,985.7c-9.9-0.3-14.8-0.5-24.6-0.9c-1.6-0.1-2.7-1.4-2.4-2.9l0,0c0.3-1.5,1.9-2.7,3.5-2.6      c9.8,0.4,14.8,0.5,24.6,0.9c1.6,0.1,2.7,1.3,2.5,2.9l0,0C1525.7,984.5,1524.1,985.7,1522.4,985.7z"/><linearGradient id="ab" x1="1505.205" x2="1505.205" y1="1008.102" y2="1014.755" gradientUnits="userSpaceOnUse" fill="none"><stop offset="0" stop-color="#3abaf9" class="stopColor3abaf9 svgShape"/><stop offset="1" stop-color="#cccccc" class="stopColorccc svgShape"/></linearGradient><path fill="url(#ab)" d="M1517,1014.8c-9.9-0.4-14.8-0.7-24.6-1.1c-1.6-0.1-2.7-1.4-2.4-2.9l0,0c0.3-1.5,1.9-2.7,3.5-2.6      c9.8,0.5,14.7,0.7,24.6,1.1c1.6,0.1,2.7,1.4,2.5,2.9v0C1520.2,1013.6,1518.6,1014.8,1517,1014.8z"/><linearGradient id="ac" x1="1499.757" x2="1499.757" y1="1036.865" y2="1043.753" gradientUnits="userSpaceOnUse" fill="none"><stop offset="0" stop-color="#3abaf9" class="stopColor3abaf9 svgShape"/><stop offset="1" stop-color="#cccccc" class="stopColorccc svgShape"/></linearGradient><path fill="url(#ac)" d="M1511.5,1043.7c-9.9-0.5-14.8-0.8-24.6-1.4c-1.6-0.1-2.7-1.4-2.4-2.9l0,0c0.3-1.5,1.8-2.7,3.5-2.6      c9.8,0.6,14.7,0.8,24.6,1.3c1.6,0.1,2.7,1.4,2.5,2.9l0,0C1514.7,1042.7,1513.2,1043.8,1511.5,1043.7z"/><linearGradient id="ad" x1="1494.311" x2="1494.311" y1="1065.549" y2="1072.688" gradientUnits="userSpaceOnUse" fill="none"><stop offset="0" stop-color="#3abaf9" class="stopColor3abaf9 svgShape"/><stop offset="1" stop-color="#cccccc" class="stopColorccc svgShape"/></linearGradient><path fill="url(#ad)" d="M1506.1,1072.7c-9.8-0.6-14.8-1-24.5-1.7c-1.6-0.1-2.7-1.4-2.4-2.9l0,0c0.3-1.5,1.8-2.6,3.5-2.5      c9.8,0.7,14.7,1,24.6,1.6c1.6,0.1,2.7,1.4,2.5,2.9l0,0C1509.3,1071.6,1507.7,1072.8,1506.1,1072.7z"/><linearGradient id="ae" x1="1488.866" x2="1488.866" y1="1094.182" y2="1101.585" gradientUnits="userSpaceOnUse" fill="none"><stop offset="0" stop-color="#3abaf9" class="stopColor3abaf9 svgShape"/><stop offset="1" stop-color="#cccccc" class="stopColorccc svgShape"/></linearGradient><path fill="url(#ae)" d="M1500.6,1101.6c-9.8-0.7-14.7-1.1-24.5-1.9c-1.6-0.1-2.7-1.5-2.4-3l0,0c0.3-1.5,1.8-2.6,3.5-2.5      c9.8,0.8,14.7,1.1,24.5,1.9c1.6,0.1,2.7,1.5,2.4,3l0,0C1503.8,1100.6,1502.2,1101.7,1500.6,1101.6z"/><linearGradient id="af" x1="1483.421" x2="1483.421" y1="1122.792" y2="1130.466" gradientUnits="userSpaceOnUse" fill="none"><stop offset="0" stop-color="#3abaf9" class="stopColor3abaf9 svgShape"/><stop offset="1" stop-color="#cccccc" class="stopColorccc svgShape"/></linearGradient><path fill="url(#af)" d="M1495.1,1130.5c-9.8-0.9-14.7-1.3-24.5-2.2c-1.6-0.1-2.7-1.5-2.4-3l0,0c0.3-1.5,1.8-2.6,3.5-2.5      c9.8,0.9,14.7,1.3,24.5,2.1c1.6,0.1,2.7,1.5,2.4,3l0,0C1498.3,1129.5,1496.8,1130.6,1495.1,1130.5z"/><linearGradient id="ag" x1="1531.576" x2="1531.576" y1="1173.924" y2="1181.282" gradientUnits="userSpaceOnUse" fill="none"><stop offset="0" stop-color="#3abaf9" class="stopColor3abaf9 svgShape"/><stop offset="1" stop-color="#cccccc" class="stopColorccc svgShape"/></linearGradient><path fill="url(#ag)" d="M1540.1,1181.3c-7.3-0.7-10.9-1-18.2-1.7c-1.4-0.1-2.4-1.4-2.1-2.7c0.1-0.3,0.1-0.4,0.1-0.7      c0.3-1.3,1.6-2.3,3.1-2.2c7.3,0.7,10.9,1,18.2,1.7c1.4,0.1,2.4,1.3,2.1,2.7c-0.1,0.3-0.1,0.4-0.1,0.7      C1543,1180.4,1541.6,1181.4,1540.1,1181.3z"/><linearGradient id="ah" x1="1565.828" x2="1565.828" y1="1177.087" y2="1184.422" gradientUnits="userSpaceOnUse" fill="none"><stop offset="0" stop-color="#3abaf9" class="stopColor3abaf9 svgShape"/><stop offset="1" stop-color="#cccccc" class="stopColorccc svgShape"/></linearGradient><path fill="url(#ah)" d="M1574.4,1184.4c-7.3-0.7-11-1-18.2-1.6c-1.4-0.1-2.4-1.4-2.1-2.7c0.1-0.3,0.1-0.4,0.1-0.7      c0.3-1.4,1.6-2.4,3.1-2.2c7.3,0.7,10.9,1,18.3,1.6c1.4,0.1,2.4,1.3,2.2,2.7c-0.1,0.3-0.1,0.4-0.1,0.7      C1577.2,1183.5,1575.9,1184.5,1574.4,1184.4z"/><linearGradient id="ai" x1="1600.183" x2="1600.183" y1="1180.081" y2="1187.405" gradientUnits="userSpaceOnUse" fill="none"><stop offset="0" stop-color="#3abaf9" class="stopColor3abaf9 svgShape"/><stop offset="1" stop-color="#cccccc" class="stopColorccc svgShape"/></linearGradient><path fill="url(#ai)" d="M1608.8,1187.4c-7.3-0.6-11-0.9-18.3-1.6c-1.4-0.1-2.4-1.4-2.2-2.7c0.1-0.3,0.1-0.4,0.1-0.7      c0.3-1.4,1.6-2.4,3.1-2.3c7.3,0.6,11,0.9,18.3,1.5c1.4,0.1,2.4,1.4,2.2,2.7c-0.1,0.3-0.1,0.4-0.1,0.7      C1611.6,1186.5,1610.2,1187.5,1608.8,1187.4z"/><linearGradient id="aj" x1="1634.599" x2="1634.599" y1="1182.929" y2="1190.254" gradientUnits="userSpaceOnUse" fill="none"><stop offset="0" stop-color="#3abaf9" class="stopColor3abaf9 svgShape"/><stop offset="1" stop-color="#cccccc" class="stopColorccc svgShape"/></linearGradient><path fill="url(#aj)" d="M1643.2,1190.2c-7.3-0.6-11-0.9-18.3-1.5c-1.4-0.1-2.4-1.4-2.2-2.8c0.1-0.3,0.1-0.4,0.1-0.7      c0.3-1.4,1.6-2.4,3.1-2.3c7.3,0.6,11,0.9,18.3,1.5c1.4,0.1,2.4,1.4,2.2,2.8c-0.1,0.3-0.1,0.4-0.1,0.7      C1646.1,1189.3,1644.7,1190.4,1643.2,1190.2z"/><linearGradient id="ak" x1="1669.035" x2="1669.035" y1="1185.652" y2="1192.99" gradientUnits="userSpaceOnUse" fill="none"><stop offset="0" stop-color="#3abaf9" class="stopColor3abaf9 svgShape"/><stop offset="1" stop-color="#cccccc" class="stopColorccc svgShape"/></linearGradient><path fill="url(#ak)" d="M1677.7,1193c-7.3-0.6-11-0.9-18.3-1.4c-1.4-0.1-2.4-1.4-2.2-2.8c0.1-0.3,0.1-0.4,0.1-0.7      c0.3-1.4,1.7-2.5,3.1-2.4c7.3,0.6,11,0.8,18.3,1.4c1.4,0.1,2.4,1.4,2.1,2.8c-0.1,0.3-0.1,0.4-0.1,0.7      C1680.5,1192,1679.1,1193.1,1677.7,1193z"/><linearGradient id="al" x1="1703.447" x2="1703.447" y1="1188.273" y2="1195.635" gradientUnits="userSpaceOnUse" fill="none"><stop offset="0" stop-color="#3abaf9" class="stopColor3abaf9 svgShape"/><stop offset="1" stop-color="#cccccc" class="stopColorccc svgShape"/></linearGradient><path fill="url(#al)" d="M1712.1,1195.6c-7.3-0.6-11-0.8-18.3-1.4c-1.4-0.1-2.4-1.4-2.1-2.8c0.1-0.3,0.1-0.5,0.1-0.8      c0.3-1.4,1.7-2.5,3.1-2.4c7.3,0.5,11,0.8,18.3,1.4c1.4,0.1,2.4,1.4,2.1,2.8c-0.1,0.3-0.1,0.5-0.1,0.8      C1714.9,1194.6,1713.5,1195.7,1712.1,1195.6z"/><linearGradient id="am" x1="1737.795" x2="1737.795" y1="1190.812" y2="1198.21" gradientUnits="userSpaceOnUse" fill="none"><stop offset="0" stop-color="#3abaf9" class="stopColor3abaf9 svgShape"/><stop offset="1" stop-color="#cccccc" class="stopColorccc svgShape"/></linearGradient><path fill="url(#am)" d="M1746.4,1198.2c-7.3-0.5-10.9-0.8-18.2-1.4c-1.4-0.1-2.4-1.4-2.1-2.8c0.1-0.3,0.1-0.5,0.1-0.8      c0.3-1.4,1.7-2.5,3.1-2.4c7.3,0.5,11,0.8,18.2,1.3c1.4,0.1,2.4,1.4,2.1,2.8c-0.1,0.3-0.1,0.5-0.1,0.8      C1749.2,1197.2,1747.8,1198.3,1746.4,1198.2z"/><linearGradient id="an" x1="1772.036" x2="1772.036" y1="1193.293" y2="1200.737" gradientUnits="userSpaceOnUse" fill="none"><stop offset="0" stop-color="#3abaf9" class="stopColor3abaf9 svgShape"/><stop offset="1" stop-color="#cccccc" class="stopColorccc svgShape"/></linearGradient><path fill="url(#an)" d="M1780.6,1200.7c-7.3-0.5-10.9-0.8-18.2-1.3c-1.4-0.1-2.4-1.4-2.1-2.9c0.1-0.3,0.1-0.5,0.1-0.8      c0.3-1.5,1.7-2.6,3.1-2.5c7.3,0.5,10.9,0.8,18.2,1.3c1.4,0.1,2.4,1.4,2.1,2.9c-0.1,0.3-0.1,0.5-0.1,0.8      C1783.4,1199.7,1782,1200.8,1780.6,1200.7z"/><linearGradient id="ao" x1="1806.128" x2="1806.128" y1="1195.737" y2="1203.238" gradientUnits="userSpaceOnUse" fill="none"><stop offset="0" stop-color="#3abaf9" class="stopColor3abaf9 svgShape"/><stop offset="1" stop-color="#cccccc" class="stopColorccc svgShape"/></linearGradient><path fill="url(#ao)" d="M1814.6,1203.2c-7.2-0.5-10.8-0.8-18.1-1.3c-1.4-0.1-2.4-1.4-2.1-2.9c0.1-0.3,0.1-0.5,0.1-0.8      c0.3-1.5,1.7-2.6,3.1-2.5c7.2,0.5,10.9,0.8,18.1,1.3c1.4,0.1,2.4,1.4,2.1,2.9c-0.1,0.3-0.1,0.5-0.1,0.8      C1817.4,1202.2,1816,1203.3,1814.6,1203.2z"/><linearGradient id="ap" x1="1840.028" x2="1840.028" y1="1198.166" y2="1205.734" gradientUnits="userSpaceOnUse" fill="none"><stop offset="0" stop-color="#3abaf9" class="stopColor3abaf9 svgShape"/><stop offset="1" stop-color="#cccccc" class="stopColorccc svgShape"/></linearGradient><path fill="url(#ap)" d="M1848.5,1205.7c-7.2-0.5-10.8-0.8-18-1.3c-1.4-0.1-2.4-1.4-2.1-2.9c0.1-0.3,0.1-0.5,0.1-0.8      c0.3-1.5,1.6-2.6,3.1-2.5c7.2,0.5,10.8,0.8,18,1.3c1.4,0.1,2.3,1.4,2.1,2.9c-0.1,0.3-0.1,0.5-0.1,0.8      C1851.2,1204.7,1849.9,1205.8,1848.5,1205.7z"/><linearGradient id="aq" x1="1873.696" x2="1873.696" y1="1200.602" y2="1208.246" gradientUnits="userSpaceOnUse" fill="none"><stop offset="0" stop-color="#3abaf9" class="stopColor3abaf9 svgShape"/><stop offset="1" stop-color="#cccccc" class="stopColorccc svgShape"/></linearGradient><path fill="url(#aq)" d="M1882.1,1208.2c-7.1-0.5-10.7-0.8-17.8-1.3c-1.4-0.1-2.3-1.4-2.1-2.9c0.1-0.3,0.1-0.5,0.1-0.8      c0.3-1.5,1.6-2.7,3.1-2.6c7.2,0.5,10.7,0.8,17.8,1.3c1.4,0.1,2.3,1.4,2.1,3c-0.1,0.3-0.1,0.5-0.1,0.8      C1884.8,1207.2,1883.5,1208.3,1882.1,1208.2z"/><linearGradient id="ar" x1="1907.089" x2="1907.089" y1="1203.068" y2="1210.796" gradientUnits="userSpaceOnUse" fill="none"><stop offset="0" stop-color="#3abaf9" class="stopColor3abaf9 svgShape"/><stop offset="1" stop-color="#cccccc" class="stopColorccc svgShape"/></linearGradient><path fill="url(#ar)" d="M1915.4,1210.8c-7.1-0.5-10.6-0.8-17.7-1.4c-1.4-0.1-2.3-1.4-2-3c0.1-0.3,0.1-0.5,0.1-0.8      c0.3-1.5,1.6-2.7,3-2.6c7.1,0.5,10.6,0.8,17.7,1.3c1.4,0.1,2.3,1.4,2,3c-0.1,0.3-0.1,0.5-0.1,0.8      C1918.1,1209.7,1916.8,1210.9,1915.4,1210.8z"/><linearGradient id="as" x1="1522.615" x2="1522.615" y1="1259.38" y2="1443.124" gradientUnits="userSpaceOnUse" fill="none"><stop offset="0" stop-color="#3abaf9" class="stopColor3abaf9 svgShape"/><stop offset="1" stop-color="#267ebd" class="stopColor267ebd svgShape"/></linearGradient><path fill="url(#as)" d="M1560.2,1291.2c5.5,0.7,10.7,2,15.5,4c5.2-9.6,10.4-19.1,15.6-28.7c-7.8-3.3-17.1-5.5-25.4-6.5      c-49-5.6-101.5,27.7-110.6,77.1c-9.1,49.1,27.8,98.2,77.2,105.7c1,0.1,2,0.3,2.9,0.4c1.4-10.6,2.8-21.2,4.2-31.8      c-0.5-0.1-1-0.1-1.4-0.2c-31.9-4.9-56.8-36.9-50.8-69.2C1493.4,1309.6,1528,1287.2,1560.2,1291.2z"/><path d="M1531.1 1333.6c-.2 1-.3 1.5-.5 2.5-5.7 7.7-11.3 15.5-17 23.2-1.6-.2-2.4-.4-4-.6 5.6-7.5 11.2-15 16.8-22.5 0 0 0-.1 0-.1-5.6-.8-8.4-1.2-13.9-2 .2-1.2.3-1.8.6-3.1C1520.3 1332.1 1523.9 1332.6 1531.1 1333.6zM1551.6 1339.7c-4.4-.6-6.5-.9-10.9-1.5-1 2.8-1.4 4.2-2.4 6.9.7 0 1.3 0 2.4.2 2.2.3 4.3 1.1 5.9 2.4 2 1.6 3.4 4.2 2.8 7.7-1 5.4-6.2 8.8-12.4 7.9-3.1-.5-5.6-1.7-6.8-2.7.6-1.1.9-1.6 1.5-2.7 1.1.9 3.2 2 5.8 2.4 3.6.5 7.2-1.3 7.9-5 .6-3.6-1.4-6.5-7.1-7.3-1.6-.2-2.9-.2-4-.3 1.7-5.2 2.6-7.8 4.3-13 5.5.8 8.2 1.1 13.7 1.9C1551.9 1337.8 1551.8 1338.4 1551.6 1339.7zM1569.1 1346.9c-1.1 5.9-4.8 8.3-8.5 7.8-3.6-.5-6.2-3.7-5.2-9.3 1-5.5 4.7-8.2 8.5-7.7C1568 1338.2 1570.1 1341.6 1569.1 1346.9zM1558.6 1345.7c-.7 3.5.1 6.4 2.6 6.7 2.6.4 4.2-2.1 4.9-5.8.6-3.4.1-6.3-2.6-6.7C1561 1339.6 1559.2 1342.2 1558.6 1345.7zM1558.2 1366.3c7.4-8.8 14.7-17.6 22.1-26.4 1 .1 1.5.2 2.5.3-7.3 8.8-14.7 17.6-22.1 26.4C1559.7 1366.5 1559.2 1366.4 1558.2 1366.3zM1585.6 1361c-1.1 5.9-4.8 8.4-8.4 7.8-3.6-.5-6.2-3.8-5.2-9.3 1-5.6 4.7-8.3 8.5-7.8C1584.5 1352.3 1586.6 1355.6 1585.6 1361zM1575.1 1359.8c-.7 3.5.2 6.4 2.6 6.8 2.6.4 4.2-2.1 4.9-5.8.6-3.4.1-6.4-2.6-6.7C1577.6 1353.7 1575.8 1356.3 1575.1 1359.8z" fill="none"/><linearGradient id="at" x1="1535.473" x2="1645.035" y1="1355.116" y2="1355.116" gradientUnits="userSpaceOnUse" fill="none"><stop offset="0" stop-color="#fe7f0a" class="stopColorfe7f0a svgShape"/><stop offset="1" stop-color="#ffb538" class="stopColorffb538 svgShape"/></linearGradient><path fill="url(#at)" d="M1643.7,1363.8c-8.7,50-58.3,85.3-108.2,79.3c1.4-10.6,2.8-21.2,4.2-31.8c33,5,65.3-19.8,71.6-51.8      c5.2-26.7-10.6-54.1-35.5-64.4c5.2-9.6,10.4-19.1,15.6-28.7C1629.8,1282.2,1650.7,1323.5,1643.7,1363.8z"/><linearGradient id="au" x1="1822.528" x2="1822.528" y1="1284.93" y2="1477.577" gradientUnits="userSpaceOnUse" fill="none"><stop offset="0" stop-color="#3abaf9" class="stopColor3abaf9 svgShape"/><stop offset="1" stop-color="#267ebd" class="stopColor267ebd svgShape"/></linearGradient><path fill="url(#au)" d="M1804.2,1284.9c-2,11.2-4,22.4-6,33.6c32.4,5.5,49.7,39.8,44.3,70.2c-5.6,31.1-34,58.3-66.9,56      c-1.9,10.9-3.9,21.8-5.8,32.7c50.7,3.8,95.3-36.1,104.1-84.8C1882.4,1344.7,1854.5,1293.2,1804.2,1284.9z"/><path d="M1761.9 1366.7c-4.3-.5-6.5-.8-10.8-1.3-1 2.9-1.5 4.4-2.4 7.3.7 0 1.3 0 2.3.1 2.2.3 4.3 1.1 5.8 2.3 1.9 1.6 3.4 4.3 2.7 8-1 5.7-6.2 9.4-12.3 8.6-3.1-.4-5.6-1.6-6.7-2.7.6-1.1.9-1.7 1.5-2.9 1.1.9 3.2 2 5.8 2.4 3.6.5 7.2-1.6 7.8-5.4.6-3.7-1.3-6.7-7-7.4-1.6-.2-2.9-.2-4-.2 1.7-5.5 2.6-8.2 4.3-13.7 5.4.7 8.1 1 13.6 1.6C1762.2 1364.7 1762.1 1365.3 1761.9 1366.7zM1784.1 1380.5c-1.8 9.9-6.3 14.9-12.6 14.2-5.5-.7-8.3-6.5-6.7-16.1 1.7-9.7 6.8-14.6 12.5-14C1783.4 1365.3 1785.8 1371.2 1784.1 1380.5zM1768.7 1379.1c-1.4 7.6.1 12.1 3.6 12.6 3.9.5 6.6-4 7.9-11.4 1.3-7.2.4-12.1-3.6-12.6C1773.3 1367.3 1770.1 1371.2 1768.7 1379.1zM1801.4 1376.4c-1.1 6.2-4.8 8.9-8.4 8.4-3.5-.4-6-3.7-5-9.6 1-5.8 4.7-8.8 8.4-8.3C1800.4 1367.4 1802.4 1370.8 1801.4 1376.4zM1791 1375.5c-.7 3.7.1 6.7 2.5 7 2.5.3 4.1-2.3 4.8-6.2.6-3.6.2-6.7-2.5-7C1793.5 1369 1791.7 1371.8 1791 1375.5zM1790.5 1397.1c7.3-9.4 14.6-18.8 21.9-28.3 1 .1 1.4.2 2.4.3-7.3 9.5-14.6 18.9-21.9 28.3C1792 1397.3 1791.5 1397.2 1790.5 1397.1zM1817.4 1390.8c-1.1 6.2-4.8 8.9-8.3 8.4-3.5-.4-6-3.8-5-9.6 1-5.9 4.7-8.8 8.4-8.4C1816.5 1381.7 1818.4 1385.2 1817.4 1390.8zM1807.1 1389.8c-.7 3.7.2 6.7 2.5 7 2.5.3 4.1-2.3 4.8-6.2.6-3.6.2-6.7-2.4-7C1809.6 1383.3 1807.8 1386.1 1807.1 1389.8z" fill="none"/><linearGradient id="av" x1="1686.621" x2="1804.175" y1="1380.565" y2="1380.565" gradientUnits="userSpaceOnUse" fill="none"><stop offset="0" stop-color="#fe7f0a" class="stopColorfe7f0a svgShape"/><stop offset="1" stop-color="#ffb538" class="stopColorffb538 svgShape"/></linearGradient><path fill="url(#av)" d="M1720.3,1373.7c-5.9,32.4,17,66.1,50.2,70.5c1.7,0.2,3.4,0.4,5.1,0.5c-1.9,10.9-3.9,21.8-5.8,32.7      c-1.7-0.1-3.4-0.3-5.1-0.6c-51-6.6-85.5-57.9-76.7-107.2c9-49.9,59.4-90.7,111.1-85.3c1.7,0.2,3.4,0.4,5,0.6      c-2,11.2-4,22.4-6,33.6c-1.6-0.3-3.3-0.6-5-0.8C1759.5,1314.1,1726.2,1341,1720.3,1373.7z"/><linearGradient id="aw" x1="1476.687" x2="1607.556" y1="1234.102" y2="1234.102" gradientUnits="userSpaceOnUse" fill="none"><stop offset="0" stop-color="#3abaf9" class="stopColor3abaf9 svgShape"/><stop offset="1" stop-color="#cccccc" class="stopColorccc svgShape"/></linearGradient><path fill="url(#aw)" d="M1604.3,1243.7c-41.8-4.4-83.6-9-125.3-14.1c-1.5-0.2-2.5-1.5-2.3-2.9l0,0c0.3-1.4,1.7-2.4,3.2-2.2     c41.7,5,83.5,9.6,125.3,13.9c1.5,0.2,2.5,1.5,2.3,3l0,0C1607.2,1242.8,1605.8,1243.9,1604.3,1243.7z"/><linearGradient id="ax" x1="1435.366" x2="1622.815" y1="1465.31" y2="1465.31" gradientUnits="userSpaceOnUse" fill="none"><stop offset="0" stop-color="#3abaf9" class="stopColor3abaf9 svgShape"/><stop offset="1" stop-color="#cccccc" class="stopColorccc svgShape"/></linearGradient><path fill="url(#ax)" d="M1619.5,1482.7c-60.7-9.2-121.4-18.9-181.9-29.3c-1.5-0.3-2.5-1.7-2.2-3.2l0,0c0.3-1.5,1.7-2.5,3.2-2.2     c60.5,10.4,121.2,20.1,181.9,29.3c1.5,0.2,2.5,1.6,2.3,3.1l0,0C1622.5,1481.9,1621,1482.9,1619.5,1482.7z"/><linearGradient id="ay" x1="1432.513" x2="1619.965" y1="1481.22" y2="1481.22" gradientUnits="userSpaceOnUse" fill="none"><stop offset="0" stop-color="#3abaf9" class="stopColor3abaf9 svgShape"/><stop offset="1" stop-color="#cccccc" class="stopColorccc svgShape"/></linearGradient><path fill="url(#ay)" d="M1616.7,1498.7c-60.7-9.3-121.4-19-181.9-29.5c-1.5-0.3-2.5-1.7-2.2-3.2l0,0c0.3-1.5,1.7-2.5,3.2-2.2     c60.5,10.5,121.2,20.2,181.9,29.5c1.5,0.2,2.5,1.6,2.3,3.1l0,0C1619.7,1497.9,1618.2,1498.9,1616.7,1498.7z"/><linearGradient id="az" x1="1429.657" x2="1617.124" y1="1497.163" y2="1497.163" gradientUnits="userSpaceOnUse" fill="none"><stop offset="0" stop-color="#3abaf9" class="stopColor3abaf9 svgShape"/><stop offset="1" stop-color="#cccccc" class="stopColorccc svgShape"/></linearGradient><path fill="url(#az)" d="M1613.8,1514.7c-60.7-9.3-121.4-19.1-181.9-29.6c-1.5-0.3-2.5-1.7-2.2-3.2v0c0.3-1.5,1.7-2.5,3.2-2.2     c60.5,10.5,121.2,20.3,181.9,29.6c1.5,0.2,2.5,1.6,2.3,3.1l0,0C1616.8,1513.9,1615.4,1514.9,1613.8,1514.7z"/><g fill="none"><linearGradient id="aA" x1="1125.985" x2="1313.434" y1="818.308" y2="818.308" gradientTransform="matrix(1.3423 -.1465 .1085 .9941 -464.082 177.592)" gradientUnits="userSpaceOnUse" fill="none"><stop offset="0" stop-color="#3abaf9" class="stopColor3abaf9 svgShape"/><stop offset="1" stop-color="#cccccc" class="stopColorccc svgShape"/></linearGradient><path fill="url(#aA)" d="M1385.2,816.4c-82.5-0.2-165-1-247.3-2.5c-2,0-3.5-1.3-3.3-2.8l0,0c0.2-1.5,2-2.7,4.1-2.7      c82.4,1.5,164.8,2.2,247.3,2.4c2.1,0,3.6,1.3,3.4,2.8l0,0C1389.1,815.1,1387.3,816.4,1385.2,816.4z"/><linearGradient id="aB" x1="1123.131" x2="1310.584" y1="834.218" y2="834.218" gradientTransform="matrix(1.3423 -.1465 .1085 .9941 -464.082 177.592)" gradientUnits="userSpaceOnUse" fill="none"><stop offset="0" stop-color="#3abaf9" class="stopColor3abaf9 svgShape"/><stop offset="1" stop-color="#cccccc" class="stopColorccc svgShape"/></linearGradient><path fill="url(#aB)" d="M1383.1,832.7c-82.5-0.3-165-1.1-247.4-2.7c-2,0-3.5-1.3-3.3-2.8l0,0c0.2-1.5,2-2.7,4.1-2.7      c82.4,1.6,164.8,2.4,247.3,2.6c2.1,0,3.6,1.3,3.4,2.8l0,0C1387.1,831.5,1385.2,832.7,1383.1,832.7z"/><linearGradient id="aC" x1="1120.275" x2="1307.742" y1="850.162" y2="850.162" gradientTransform="matrix(1.3423 -.1465 .1085 .9941 -464.082 177.592)" gradientUnits="userSpaceOnUse" fill="none"><stop offset="0" stop-color="#3abaf9" class="stopColor3abaf9 svgShape"/><stop offset="1" stop-color="#cccccc" class="stopColorccc svgShape"/></linearGradient><path fill="url(#aC)" d="M1381.1,849c-82.5-0.3-165-1.2-247.4-2.8c-2,0-3.5-1.3-3.4-2.8v0c0.2-1.5,2-2.7,4.1-2.7      c82.4,1.6,164.9,2.4,247.4,2.8c2.1,0,3.6,1.3,3.4,2.8v0C1385,847.8,1383.1,849,1381.1,849z"/></g><linearGradient id="aD" x1="1665.728" x2="1850.297" y1="1499.675" y2="1499.675" gradientUnits="userSpaceOnUse" fill="none"><stop offset="0" stop-color="#3abaf9" class="stopColor3abaf9 svgShape"/><stop offset="1" stop-color="#cccccc" class="stopColorccc svgShape"/></linearGradient><path fill="url(#aD)" d="M1847.1,1514.9c-59.7-8.1-119.4-16.4-179.1-25.1c-1.5-0.2-2.5-1.6-2.3-3.1l0,0c0.3-1.5,1.7-2.5,3.2-2.3     c59.7,8.7,119.4,17,179.1,25c1.5,0.2,2.4,1.6,2.2,3.1l0,0C1850,1514.1,1848.6,1515.1,1847.1,1514.9z"/><linearGradient id="aE" x1="1537.178" x2="1727.2" y1="757.487" y2="757.487" gradientUnits="userSpaceOnUse" fill="none"><stop offset="0" stop-color="#3abaf9" class="stopColor3abaf9 svgShape"/><stop offset="1" stop-color="#cccccc" class="stopColorccc svgShape"/></linearGradient><path fill="url(#aE)" d="M1723.9,758.3c-61.4,2.1-122.9,3.7-184.4,3.9c-1.5,0-2.5-1.2-2.3-2.7l0,0c0.3-1.5,1.7-2.7,3.2-2.7     c61.5-0.2,122.9-1.8,184.4-3.9c1.5-0.1,2.6,1.1,2.3,2.6l0,0C1726.9,756.9,1725.4,758.2,1723.9,758.3z"/><linearGradient id="aF" x1="1662.876" x2="1847.406" y1="1515.774" y2="1515.774" gradientUnits="userSpaceOnUse" fill="none"><stop offset="0" stop-color="#3abaf9" class="stopColor3abaf9 svgShape"/><stop offset="1" stop-color="#cccccc" class="stopColorccc svgShape"/></linearGradient><path fill="url(#aF)" d="M1844.2,1531.1c-59.7-8.1-119.4-16.4-179-25.2c-1.5-0.2-2.5-1.6-2.3-3.1l0,0c0.3-1.5,1.7-2.5,3.2-2.3     c59.6,8.7,119.3,17.1,179.1,25.1c1.5,0.2,2.4,1.6,2.2,3.1l0,0C1847.1,1530.2,1845.7,1531.3,1844.2,1531.1z"/><linearGradient id="aG" x1="1660.035" x2="1844.536" y1="1531.803" y2="1531.803" gradientUnits="userSpaceOnUse" fill="none"><stop offset="0" stop-color="#3abaf9" class="stopColor3abaf9 svgShape"/><stop offset="1" stop-color="#cccccc" class="stopColorccc svgShape"/></linearGradient><path fill="url(#aG)" d="M1841.4,1547.1c-59.7-8.1-119.4-16.4-179-25.2c-1.5-0.2-2.5-1.6-2.3-3.1l0,0c0.3-1.5,1.7-2.5,3.2-2.3     c59.6,8.8,119.3,17.1,179,25.2c1.5,0.2,2.4,1.6,2.2,3.1v0C1844.2,1546.2,1842.8,1547.3,1841.4,1547.1z"/></g><g><linearGradient id="aH" x1="2211.056" x2="2225.315" y1="1093.923" y2="1093.923" gradientUnits="userSpaceOnUse" fill="none"><stop offset="0" stop-color="#fbfbfb" class="stopColorfbfbfb svgShape"/><stop offset="1" stop-color="#e5e5e5" class="stopColore5e5e5 svgShape"/></linearGradient><path fill="url(#aH)" d="M2214.8,1116.9c-1.2-0.2-2.5-0.4-3.8-0.6c3-15.1,6-30.3,9-45.4c1.8,0.2,3.6,0.5,5.3,0.7        C2221.8,1086.8,2218.3,1101.8,2214.8,1116.9z"/><linearGradient id="aI" x1="2173.684" x2="2346.301" y1="1230.582" y2="1230.582" gradientUnits="userSpaceOnUse" fill="none"><stop offset="0" stop-color="#fbfbfb" class="stopColorfbfbfb svgShape"/><stop offset="1" stop-color="#e5e5e5" class="stopColore5e5e5 svgShape"/></linearGradient><path fill="url(#aI)" d="M2173.7,1386.9c1.3-15.1,2.8-30.3,4.2-45.4c2.5,0.2,5,0.3,7.5,0.4c-0.4,15.2-0.8,30.4-1.1,45.6        C2180.7,1387.4,2177.2,1387.2,2173.7,1386.9z M2194.8,1387.4c-0.7-15.2-1.4-30.4-2-45.7c2.5-0.1,5-0.4,7.5-0.7        c1.6,15.2,3.3,30.3,5,45.5C2201.9,1386.9,2198.3,1387.2,2194.8,1387.4z M2215.8,1384.9c-2.8-15-5.4-30.1-8.1-45.1        c2.5-0.5,4.9-1.1,7.3-1.7c3.6,14.9,7.3,29.7,11,44.5C2222.8,1383.5,2219.3,1384.2,2215.8,1384.9z M2236.3,1379.5        c-4.7-14.6-9.4-29.1-14-43.7c2.4-0.8,4.8-1.8,7.1-2.8c5.6,14.3,11.2,28.5,16.8,42.7C2243,1377.1,2239.7,1378.4,2236.3,1379.5z         M2256,1371.2c-6.6-13.8-13.1-27.7-19.6-41.5c2.3-1.2,4.5-2.4,6.7-3.8c7.4,13.4,14.8,26.8,22.3,40.1        C2262.3,1367.9,2259.1,1369.6,2256,1371.2z M2274.4,1360.2c-8.3-12.8-16.6-25.7-24.9-38.5c2.1-1.5,4.2-3.1,6.2-4.7        c9.1,12.2,18.2,24.5,27.4,36.7C2280.2,1355.9,2277.3,1358.1,2274.4,1360.2z M2291.3,1346.5c-9.9-11.6-19.8-23.2-29.7-34.7        c1.9-1.8,3.8-3.7,5.6-5.6c10.7,10.8,21.3,21.6,32,32.5C2296.6,1341.3,2294,1344,2291.3,1346.5z M2306.4,1330.3        c-11.3-10.1-22.7-20.1-34.1-30.1c1.7-2,3.3-4.2,4.8-6.3c12.1,9.1,24.1,18.3,36.1,27.5        C2311.1,1324.4,2308.8,1327.4,2306.4,1330.3z M2319.5,1311.8c-12.6-8.3-25.3-16.5-37.9-24.7c1.4-2.3,2.7-4.6,4-7        c13.2,7.2,26.4,14.4,39.6,21.7C2323.3,1305.2,2321.4,1308.6,2319.5,1311.8z M2330.1,1291.5c-13.7-6.3-27.4-12.5-41.1-18.6        c1.1-2.4,2.1-5,3.1-7.5c14.1,5.1,28.3,10.2,42.4,15.4C2333.2,1284.4,2331.7,1288,2330.1,1291.5z M2338.2,1269.9        c-14.5-4.1-29-8.1-43.5-12.1c0.8-2.6,1.5-5.2,2.1-7.8c14.8,2.9,29.6,5.8,44.4,8.8C2340.4,1262.4,2339.3,1266.2,2338.2,1269.9z         M2298.5,1241.9c0.5-2.7,0.8-5.4,1.1-8c15.2,0.7,30.4,1.4,45.6,2c-0.4,3.8-1,7.6-1.6,11.4        C2328.5,1245.6,2313.5,1243.8,2298.5,1241.9z M2300.2,1225.9c0.1-2.7,0.1-5.4,0.1-8c15.3-1.6,30.6-3.2,46-4.9        c0.1,3.8,0,7.6-0.2,11.4C2330.8,1225,2315.5,1225.5,2300.2,1225.9z M2299.9,1210c-0.2-2.6-0.6-5.2-1-7.8        c15.2-3.8,30.3-7.7,45.5-11.7c0.6,3.7,1,7.4,1.3,11.1C2330.4,1204.5,2315.2,1207.3,2299.9,1210z M2297.4,1194.5        c-0.6-2.5-1.3-5-2-7.5c14.7-5.9,29.4-12,44.1-18c1.1,3.5,2,7,2.8,10.6C2327.3,1184.7,2312.4,1189.6,2297.4,1194.5z         M2292.9,1179.8c-0.9-2.4-1.9-4.7-3-7c14-7.9,27.9-15.9,41.8-23.9c1.5,3.2,2.9,6.5,4.2,9.9        C2321.6,1165.8,2307.2,1172.8,2292.9,1179.8z M2286.4,1166c-1.2-2.2-2.6-4.3-4-6.4c12.9-9.7,25.9-19.4,38.8-29.1        c2,2.9,3.8,5.9,5.6,8.9C2313.3,1148.3,2299.8,1157.2,2286.4,1166z M2278,1153.6c-1.5-2-3.2-3.9-4.8-5.7        c11.6-11.2,23.3-22.4,34.9-33.7c2.4,2.5,4.7,5.2,6.8,7.9C2302.6,1132.6,2290.3,1143.1,2278,1153.6z M2267.9,1142.6        c-1.8-1.7-3.7-3.3-5.6-4.9c10.1-12.5,20.3-25,30.4-37.5c2.7,2.1,5.4,4.4,8,6.7C2289.7,1118.8,2278.8,1130.7,2267.9,1142.6z         M2256.3,1133.3c-2-1.4-4.2-2.7-6.3-4c8.4-13.6,16.8-27.1,25.2-40.7c3,1.7,6,3.5,8.9,5.4        C2274.9,1107.2,2265.6,1120.2,2256.3,1133.3z M2243.4,1125.9c-2.2-1.1-4.5-2.1-6.8-3c6.5-14.4,13-28.7,19.6-43.1        c3.3,1.2,6.6,2.6,9.7,4.1C2258.4,1097.9,2250.9,1111.9,2243.4,1125.9z M2229.5,1120.4c-2.4-0.7-4.8-1.4-7.3-2        c4.5-14.9,9-29.8,13.6-44.7c3.5,0.8,6.9,1.7,10.3,2.7C2240.6,1091,2235,1105.7,2229.5,1120.4z"/><linearGradient id="aJ" x1="2157.858" x2="2170.291" y1="1362.75" y2="1362.75" gradientUnits="userSpaceOnUse" fill="none"><stop offset="0" stop-color="#fbfbfb" class="stopColorfbfbfb svgShape"/><stop offset="1" stop-color="#e5e5e5" class="stopColore5e5e5 svgShape"/></linearGradient><path fill="url(#aJ)" d="M2157.9,1384.6c2.9-14.9,5.8-29.8,8.7-44.7c1.2,0.2,2.5,0.5,3.7,0.6c-2.4,15-4.9,30-7.2,45        C2161.3,1385.3,2159.6,1385,2157.9,1384.6z"/><linearGradient id="aK" x1="2032.623" x2="2220.005" y1="1227.213" y2="1227.213" gradientUnits="userSpaceOnUse" fill="none"><stop offset="0" stop-color="#fe7f0a" class="stopColorfe7f0a svgShape"/><stop offset="1" stop-color="#ffb538" class="stopColorffb538 svgShape"/></linearGradient><path fill="url(#aK)" d="M2079.9,1210.6c-11.3,57.9,28.2,118.2,86.6,129.4c0,0,0,0,0,0c-2.9,14.9-5.8,29.8-8.7,44.7       c-82.7-16.1-138.6-98.9-122.5-181.6c16.3-83.9,100.4-142.3,184.6-132.1c-3,15.1-6,30.3-9,45.4c0,0,0,0,0,0       C2151.5,1108.7,2091.4,1151.9,2079.9,1210.6z"/><linearGradient id="aL" x1="2077.975" x2="2211.017" y1="1227.691" y2="1227.691" gradientUnits="userSpaceOnUse" fill="none"><stop offset="0" stop-color="#ffd600" class="stopColorffd600 svgShape"/><stop offset="1" stop-color="#ffffff" class="stopColorfff svgShape"/></linearGradient><path fill="url(#aL)" d="M2211,1116.3c-6.5,32.5-12.9,65.1-19.4,97.6c-7.6,4.8-11.4,7.2-19,11.9c5.2,7.5,7.7,11.2,12.9,18.7     c-6.3,31.8-12.7,63.5-18.9,95.3c-58.4-11.2-97.9-71.5-86.6-129.4C2091.4,1151.9,2151.5,1108.7,2211,1116.3z" opacity=".58"/><linearGradient id="aM" x1="2168.883" x2="2238.843" y1="1141.421" y2="1141.421" gradientUnits="userSpaceOnUse" fill="none"><stop offset="0" stop-color="#7f7f7f" class="stopColor7f7f7f svgShape"/><stop offset="1" stop-color="#444444" class="stopColor444 svgShape"/></linearGradient><path fill="url(#aM)" d="M2202.8,1213.6c12-41.6,24-83.1,36-124.7c-3.8-17.8-7.6-35.5-11.7-53.2c0.1-0.6,0.2-0.9,0.3-1.5     c-0.2,0.3-0.3,0.4-0.5,0.7c-0.1-0.3-0.1-0.5-0.2-0.8c-0.1,0.6-0.2,0.9-0.3,1.5c-10.5,15.9-21,31.9-31.4,47.9     c-4.5,42.3-9.2,84.5-14,126.7c-5.9,2.8-10.5,8.3-11.9,15.2c-2.1,10.6,4.7,21.4,15.4,23.2c10.9,1.8,21.2-6.1,23.4-16.9     C2209.5,1224.7,2207.3,1218,2202.8,1213.6z M2186.8,1238c-5.1-0.8-8.4-5.8-7.4-11.1s6.1-8.9,11.2-8.1c5.1,0.8,8.4,5.8,7.4,11.1     C2196.9,1235.3,2191.9,1238.9,2186.8,1238z"/></g></svg>